<?xml version="1.0" encoding="UTF-8"?>
<svg xmlns="http://www.w3.org/2000/svg" xmlns:xlink="http://www.w3.org/1999/xlink" width="509.45pt" height="127.59pt" viewBox="0 0 509.45 127.59" version="1.1">
<defs>
<clipPath id="clip1">
  <path d="M 456 30 L 509.449219 30 L 509.449219 91 L 456 91 Z M 456 30 "/>
</clipPath>
<clipPath id="clip2">
  <path d="M 308 103 L 325 103 L 325 127.589844 L 308 127.589844 Z M 308 103 "/>
</clipPath>
<clipPath id="clip3">
  <path d="M 331 103 L 352 103 L 352 127.589844 L 331 127.589844 Z M 331 103 "/>
</clipPath>
<clipPath id="clip4">
  <path d="M 355 103 L 380 103 L 380 127.589844 L 355 127.589844 Z M 355 103 "/>
</clipPath>
<clipPath id="clip5">
  <path d="M 385 104 L 405 104 L 405 127.589844 L 385 127.589844 Z M 385 104 "/>
</clipPath>
<clipPath id="clip6">
  <path d="M 412 104 L 427 104 L 427 127.589844 L 412 127.589844 Z M 412 104 "/>
</clipPath>
<clipPath id="clip7">
  <path d="M 460 104 L 481 104 L 481 127.589844 L 460 127.589844 Z M 460 104 "/>
</clipPath>
<clipPath id="clip8">
  <path d="M 489 104 L 509.449219 104 L 509.449219 127.589844 L 489 127.589844 Z M 489 104 "/>
</clipPath>
<clipPath id="clip9">
  <path d="M 430 103 L 453 103 L 453 127.589844 L 430 127.589844 Z M 430 103 "/>
</clipPath>
</defs>
<g id="surface1">
<path style=" stroke:none;fill-rule:nonzero;fill:rgb(19.999695%,31.399536%,54.499817%);fill-opacity:1;" d="M 52.652344 35.867188 C 50.90625 32.167969 48.554688 29.109375 45.601563 26.695313 C 42.648438 24.285156 39.175781 22.476563 35.183594 21.269531 C 31.191406 20.0625 26.949219 19.460938 22.457031 19.460938 L 12.101563 19.460938 L 12.101563 78.597656 L 22.457031 78.597656 C 26.949219 78.597656 31.191406 78.019531 35.183594 76.851563 C 39.175781 75.691406 42.648438 73.882813 45.601563 71.425781 C 48.554688 68.972656 50.90625 65.894531 52.652344 62.191406 C 54.398438 58.492188 55.273438 54.101563 55.273438 49.03125 C 55.273438 43.957031 54.398438 39.570313 52.652344 35.867188 Z M 63.878906 66.058594 C 61.46875 71.011719 58.265625 75.167969 54.273438 78.539063 C 50.28125 81.902344 45.703125 84.464844 40.550781 86.214844 C 35.390625 87.957031 30.027344 88.828125 24.453125 88.828125 L 0 88.828125 L 0 9.230469 L 24.453125 9.230469 C 30.027344 9.230469 35.390625 10.101563 40.550781 11.847656 C 45.703125 13.59375 50.28125 16.152344 54.273438 19.523438 C 58.265625 22.890625 61.46875 27.050781 63.878906 32 C 66.292969 36.949219 67.5 42.625 67.5 49.03125 C 67.5 55.4375 66.292969 61.109375 63.878906 66.058594 "/>
<path style=" stroke:none;fill-rule:nonzero;fill:rgb(19.999695%,31.399536%,54.499817%);fill-opacity:1;" d="M 148.75 79.785156 C 147.878906 81.820313 146.585938 83.613281 144.882813 85.148438 C 143.179688 86.6875 141.035156 87.914063 138.457031 88.828125 C 135.878906 89.742188 132.882813 90.203125 129.476563 90.203125 C 126.148438 90.203125 123.089844 89.804688 120.304688 89.015625 C 117.515625 88.226563 115.292969 87.25 113.628906 86.085938 L 111.007813 73.609375 C 113.335938 75.609375 116.164063 77.273438 119.492188 78.597656 C 122.820313 79.929688 126.230469 80.59375 129.722656 80.59375 C 132.386719 80.59375 134.546875 79.953125 136.210938 78.660156 C 137.875 77.375 138.707031 75.773438 138.707031 73.859375 C 138.707031 71.863281 138.019531 70.21875 136.648438 68.929688 C 135.277344 67.640625 133.257813 66.535156 130.597656 65.625 C 124.941406 63.542969 120.613281 61.09375 117.621094 58.261719 C 114.628906 55.4375 113.128906 51.734375 113.128906 47.15625 C 113.128906 44.832031 113.585938 42.667969 114.503906 40.671875 C 115.417969 38.675781 116.703125 36.949219 118.371094 35.492188 C 120.03125 34.039063 122.027344 32.914063 124.359375 32.125 C 126.6875 31.335938 129.265625 30.9375 132.09375 30.9375 C 135.339844 30.9375 138.332031 31.375 141.078125 32.25 C 143.820313 33.121094 145.734375 33.890625 146.816406 34.558594 L 144.695313 44.039063 C 143.445313 43.125 141.78125 42.292969 139.707031 41.542969 C 137.625 40.792969 135.046875 40.421875 131.96875 40.421875 C 129.558594 40.421875 127.644531 41.003906 126.230469 42.167969 C 124.816406 43.332031 124.109375 44.871094 124.109375 46.78125 C 124.109375 48.613281 124.773438 50.070313 126.105469 51.148438 C 127.433594 52.230469 129.515625 53.273438 132.34375 54.269531 C 138 56.351563 142.367188 58.828125 145.445313 61.691406 C 148.519531 64.5625 150.0625 68.449219 150.0625 73.363281 C 150.0625 75.609375 149.625 77.75 148.75 79.785156 "/>
<path style=" stroke:none;fill-rule:nonzero;fill:rgb(19.999695%,31.399536%,54.499817%);fill-opacity:1;" d="M 202.167969 45.160156 C 199.589844 43.449219 197.09375 42.292969 194.679688 41.691406 C 192.269531 41.097656 189.691406 40.792969 186.945313 40.792969 C 184.367188 40.792969 181.871094 41.257813 179.460938 42.175781 C 177.046875 43.097656 174.925781 44.417969 173.097656 46.132813 C 171.265625 47.847656 169.789063 49.921875 168.667969 52.347656 C 167.546875 54.773438 166.984375 57.539063 166.984375 60.632813 C 166.984375 63.648438 167.546875 66.390625 168.667969 68.859375 C 169.789063 71.328125 171.285156 73.398438 173.160156 75.070313 C 175.03125 76.746094 177.191406 78.042969 179.648438 78.964844 C 182.101563 79.886719 184.613281 80.34375 187.195313 80.34375 C 189.855469 80.34375 192.433594 80.046875 194.933594 79.445313 C 197.425781 78.847656 200.253906 77.773438 203.414063 76.226563 L 201.042969 87.332031 C 196.800781 89.246094 191.851563 90.203125 186.195313 90.203125 C 182.285156 90.203125 178.503906 89.535156 174.84375 88.203125 C 171.183594 86.875 167.929688 84.917969 165.082031 82.339844 C 162.238281 79.765625 159.945313 76.664063 158.21875 73.046875 C 156.492188 69.429688 155.628906 65.292969 155.628906 60.632813 C 155.628906 55.976563 156.492188 51.816406 158.21875 48.15625 C 159.945313 44.496094 162.238281 41.378906 165.082031 38.800781 C 167.929688 36.21875 171.183594 34.265625 174.84375 32.933594 C 178.503906 31.605469 182.285156 30.9375 186.195313 30.9375 C 189.941406 30.9375 193.285156 31.3125 196.242188 32.0625 C 199.191406 32.808594 201.875 33.851563 204.289063 35.179688 L 202.167969 45.160156 "/>
<path style=" stroke:none;fill-rule:nonzero;fill:rgb(19.999695%,31.399536%,54.499817%);fill-opacity:1;" d="M 226.699219 91.078125 C 225.78125 90.824219 224.679688 90.390625 223.390625 89.765625 C 222.101563 89.144531 220.875 88.226563 219.710938 87.019531 C 218.546875 85.816406 217.546875 84.277344 216.71875 82.402344 C 215.886719 80.535156 215.46875 78.226563 215.46875 75.480469 L 215.46875 -0.00390625 L 226.824219 -0.00390625 L 226.824219 73.980469 C 226.824219 76.640625 227.652344 78.789063 229.320313 80.40625 C 230.984375 82.027344 232.6875 83.007813 234.433594 83.339844 L 226.699219 91.078125 "/>
<path style=" stroke:none;fill-rule:nonzero;fill:rgb(19.999695%,31.399536%,54.499817%);fill-opacity:1;" d="M 287.902344 52.472656 C 286.894531 50.046875 285.535156 47.972656 283.820313 46.257813 C 282.101563 44.542969 280.128906 43.203125 277.910156 42.238281 C 275.695313 41.277344 273.328125 40.792969 270.8125 40.792969 C 268.308594 40.792969 265.917969 41.277344 263.65625 42.238281 C 261.398438 43.203125 259.40625 44.542969 257.691406 46.257813 C 255.972656 47.972656 254.613281 50.046875 253.609375 52.472656 C 252.601563 54.902344 252.101563 57.621094 252.101563 60.632813 C 252.101563 63.5625 252.601563 66.242188 253.609375 68.667969 C 254.613281 71.101563 255.972656 73.167969 257.691406 74.886719 C 259.40625 76.601563 261.398438 77.941406 263.65625 78.902344 C 265.917969 79.867188 268.308594 80.34375 270.8125 80.34375 C 273.328125 80.34375 275.695313 79.867188 277.910156 78.902344 C 280.128906 77.941406 282.101563 76.601563 283.820313 74.886719 C 285.535156 73.167969 286.894531 71.101563 287.902344 68.667969 C 288.902344 66.242188 289.40625 63.5625 289.40625 60.632813 C 289.40625 57.621094 288.902344 54.902344 287.902344 52.472656 Z M 298.453125 72.671875 C 296.910156 76.292969 294.792969 79.390625 292.089844 81.96875 C 289.382813 84.546875 286.226563 86.5625 282.605469 88.019531 C 278.992188 89.472656 275.058594 90.203125 270.8125 90.203125 C 266.574219 90.203125 262.621094 89.472656 258.964844 88.019531 C 255.300781 86.5625 252.121094 84.546875 249.421875 81.96875 C 246.714844 79.390625 244.59375 76.292969 243.054688 72.671875 C 241.515625 69.050781 240.75 65.042969 240.75 60.632813 C 240.75 56.226563 241.515625 52.210938 243.054688 48.59375 C 244.59375 44.976563 246.714844 41.855469 249.421875 39.234375 C 252.121094 36.617188 255.300781 34.578125 258.964844 33.121094 C 262.621094 31.667969 266.574219 30.9375 270.8125 30.9375 C 275.058594 30.9375 278.992188 31.667969 282.605469 33.121094 C 286.226563 34.578125 289.382813 36.617188 292.089844 39.234375 C 294.792969 41.855469 296.910156 44.976563 298.453125 48.59375 C 299.988281 52.210938 300.761719 56.226563 300.761719 60.632813 C 300.761719 65.042969 299.988281 69.050781 298.453125 72.671875 "/>
<path style=" stroke:none;fill-rule:nonzero;fill:rgb(19.999695%,31.399536%,54.499817%);fill-opacity:1;" d="M 345.488281 79.785156 C 344.617188 81.820313 343.324219 83.613281 341.625 85.148438 C 339.914063 86.6875 337.773438 87.914063 335.199219 88.828125 C 332.613281 89.742188 329.621094 90.203125 326.210938 90.203125 C 322.886719 90.203125 319.828125 89.804688 317.039063 89.015625 C 314.253906 88.226563 312.027344 87.25 310.371094 86.085938 L 307.746094 73.609375 C 310.078125 75.609375 312.90625 77.273438 316.234375 78.597656 C 319.558594 79.929688 322.964844 80.59375 326.460938 80.59375 C 329.125 80.59375 331.285156 79.953125 332.949219 78.660156 C 334.613281 77.375 335.445313 75.773438 335.445313 73.859375 C 335.445313 71.863281 334.761719 70.21875 333.382813 68.929688 C 332.015625 67.640625 329.996094 66.535156 327.335938 65.625 C 321.679688 63.542969 317.351563 61.09375 314.363281 58.261719 C 311.367188 55.4375 309.867188 51.734375 309.867188 47.15625 C 309.867188 44.832031 310.324219 42.667969 311.242188 40.671875 C 312.15625 38.675781 313.445313 36.949219 315.109375 35.492188 C 316.773438 34.039063 318.765625 32.914063 321.097656 32.125 C 323.425781 31.335938 326.003906 30.9375 328.835938 30.9375 C 332.078125 30.9375 335.070313 31.375 337.816406 32.25 C 340.5625 33.121094 342.472656 33.890625 343.554688 34.558594 L 341.429688 44.039063 C 340.1875 43.125 338.523438 42.292969 336.445313 41.542969 C 334.363281 40.792969 331.785156 40.421875 328.710938 40.421875 C 326.292969 40.421875 324.382813 41.003906 322.964844 42.167969 C 321.550781 43.332031 320.847656 44.871094 320.847656 46.78125 C 320.847656 48.613281 321.511719 50.070313 322.839844 51.148438 C 324.171875 52.230469 326.253906 53.273438 329.082031 54.269531 C 334.738281 56.351563 339.101563 58.828125 342.179688 61.691406 C 345.261719 64.5625 346.796875 68.449219 346.796875 73.363281 C 346.796875 75.609375 346.363281 77.75 345.488281 79.785156 "/>
<path style=" stroke:none;fill-rule:nonzero;fill:rgb(19.999695%,31.399536%,54.499817%);fill-opacity:1;" d="M 397.453125 88.742188 L 396.957031 83.125 C 394.792969 85.570313 392.441406 87.363281 389.90625 88.496094 C 387.367188 89.632813 383.894531 90.203125 379.484375 90.203125 C 376.40625 90.203125 373.558594 89.722656 370.941406 88.765625 C 368.320313 87.8125 366.054688 86.460938 364.140625 84.714844 C 362.226563 82.964844 360.730469 80.828125 359.652344 78.289063 C 358.566406 75.75 358.027344 72.902344 358.027344 69.742188 L 358.027344 32.3125 L 369.378906 32.3125 L 369.378906 68.523438 C 369.378906 70.015625 369.609375 71.472656 370.066406 72.878906 C 370.523438 74.289063 371.292969 75.558594 372.375 76.675781 C 373.457031 77.796875 374.808594 78.691406 376.429688 79.347656 C 378.054688 80.015625 380.070313 80.34375 382.480469 80.34375 C 384.726563 80.34375 386.699219 80.015625 388.410156 79.347656 C 390.109375 78.691406 391.527344 77.796875 392.648438 76.675781 C 393.773438 75.558594 394.625 74.289063 395.207031 72.878906 C 395.789063 71.472656 396.082031 70.015625 396.082031 68.523438 L 396.082031 32.3125 L 407.4375 32.3125 L 407.4375 88.742188 L 397.453125 88.742188 "/>
<path style=" stroke:none;fill-rule:nonzero;fill:rgb(19.999695%,31.399536%,54.499817%);fill-opacity:1;" d="M 451.128906 41.167969 C 448.882813 41.167969 446.550781 41.503906 444.144531 42.167969 C 441.730469 42.835938 439.570313 43.976563 437.652344 45.597656 C 435.742188 47.21875 434.164063 49.386719 432.914063 52.085938 C 431.667969 54.789063 431.042969 58.136719 431.042969 62.128906 L 431.042969 88.828125 L 419.6875 88.828125 L 419.6875 32.3125 L 430.421875 32.3125 L 430.917969 41.167969 C 432.417969 37.675781 434.933594 35.199219 438.46875 33.746094 C 442.003906 32.289063 445.894531 31.5625 450.128906 31.5625 L 452.253906 41.167969 L 451.128906 41.167969 "/>
<g clip-path="url(#clip1)" clip-rule="nonzero">
<path style=" stroke:none;fill-rule:nonzero;fill:rgb(19.999695%,31.399536%,54.499817%);fill-opacity:1;" d="M 497.214844 48.53125 C 496.632813 47.117188 495.796875 45.828125 494.710938 44.664063 C 493.625 43.5 492.308594 42.5625 490.761719 41.855469 C 489.214844 41.148438 487.527344 40.792969 485.6875 40.792969 C 483.933594 40.792969 482.15625 41.128906 480.359375 41.792969 C 478.5625 42.460938 476.914063 43.394531 475.414063 44.601563 C 473.910156 45.808594 472.613281 47.21875 471.527344 48.84375 C 470.441406 50.464844 469.730469 52.273438 469.398438 54.269531 L 497.96875 54.269531 C 498.050781 53.941406 498.09375 53.4375 498.09375 52.773438 C 498.09375 51.359375 497.800781 49.945313 497.214844 48.53125 Z M 509.078125 57.078125 L 502.710938 63.460938 L 468.648438 63.460938 C 468.734375 65.210938 469.210938 67.066406 470.085938 69.027344 C 470.960938 70.988281 472.226563 72.820313 473.894531 74.527344 C 475.558594 76.238281 477.617188 77.640625 480.074219 78.71875 C 482.53125 79.804688 485.425781 80.34375 488.753906 80.34375 C 492.414063 80.34375 495.679688 79.859375 498.550781 78.878906 C 501.421875 77.902344 504.191406 76.441406 506.859375 74.480469 L 503.984375 86.582031 C 501.988281 87.667969 499.660156 88.542969 496.996094 89.203125 C 494.332031 89.867188 491.085938 90.203125 487.257813 90.203125 C 483.261719 90.203125 479.429688 89.492188 475.769531 88.078125 C 472.113281 86.667969 468.882813 84.652344 466.097656 82.027344 C 463.3125 79.40625 461.082031 76.292969 459.421875 72.671875 C 457.753906 69.050781 456.921875 65.042969 456.921875 60.632813 C 456.921875 55.8125 457.773438 51.546875 459.480469 47.84375 C 461.183594 44.144531 463.367188 41.046875 466.03125 38.550781 C 468.6875 36.054688 471.707031 34.164063 475.074219 32.871094 C 478.445313 31.585938 481.75 30.9375 484.992188 30.9375 C 488.902344 30.9375 492.375 31.5625 495.40625 32.816406 C 498.449219 34.066406 501.003906 35.710938 503.082031 37.753906 C 505.164063 39.800781 506.746094 42.113281 507.824219 44.699219 C 508.90625 47.28125 509.449219 49.867188 509.449219 52.453125 C 509.449219 54.285156 509.324219 55.832031 509.078125 57.078125 "/>
</g>
<path style=" stroke:none;fill-rule:nonzero;fill:rgb(36.898804%,69.799805%,63.499451%);fill-opacity:1;" d="M 98.542969 14.390625 C 98.542969 19.003906 94.800781 22.742188 90.191406 22.742188 C 85.578125 22.742188 81.835938 19.003906 81.835938 14.390625 C 81.835938 9.78125 85.578125 6.039063 90.191406 6.039063 C 94.800781 6.039063 98.542969 9.78125 98.542969 14.390625 "/>
<path style=" stroke:none;fill-rule:nonzero;fill:rgb(36.898804%,69.799805%,63.499451%);fill-opacity:1;" d="M 90.191406 26.085938 C 82.808594 26.085938 76.824219 32.070313 76.824219 39.449219 L 76.824219 58.660156 C 76.824219 62.859375 78.804688 66.5625 81.835938 69.015625 L 81.835938 82.046875 C 81.835938 86.65625 85.578125 90.398438 90.191406 90.398438 C 94.800781 90.398438 98.542969 86.65625 98.542969 82.046875 L 98.542969 69.015625 C 101.574219 66.5625 103.554688 62.859375 103.554688 58.660156 L 103.554688 39.449219 C 103.554688 32.070313 97.570313 26.085938 90.191406 26.085938 "/>
<g clip-path="url(#clip2)" clip-rule="nonzero">
<path style=" stroke:none;fill-rule:nonzero;fill:rgb(36.898804%,69.799805%,63.499451%);fill-opacity:1;" d="M 322.089844 115.539063 C 321.503906 114.949219 320.789063 114.417969 319.964844 113.957031 C 319.160156 113.511719 318.253906 113.117188 317.277344 112.789063 C 315.222656 112.09375 314.179688 111.148438 314.179688 109.988281 C 314.179688 109.363281 314.425781 108.832031 314.941406 108.355469 C 315.460938 107.867188 316.179688 107.632813 317.140625 107.632813 C 317.949219 107.632813 318.714844 107.765625 319.410156 108.019531 C 320.125 108.28125 320.664063 108.539063 321.007813 108.78125 L 321.734375 109.292969 L 322.679688 105.335938 L 322.363281 105.097656 C 321.914063 104.761719 321.257813 104.453125 320.347656 104.164063 C 318.492188 103.570313 315.824219 103.578125 314.035156 104.261719 C 313.101563 104.609375 312.3125 105.097656 311.6875 105.699219 C 311.0625 106.308594 310.585938 107.019531 310.269531 107.808594 C 309.960938 108.59375 309.804688 109.40625 309.804688 110.226563 C 309.804688 111.875 310.359375 113.316406 311.457031 114.503906 C 312.519531 115.652344 314.085938 116.574219 316.125 117.238281 C 317.332031 117.636719 318.210938 118.121094 318.742188 118.679688 C 319.234375 119.207031 319.476563 119.851563 319.476563 120.652344 C 319.476563 121.492188 319.1875 122.144531 318.605469 122.640625 C 317.363281 123.6875 314.875 123.578125 312.914063 122.890625 C 311.90625 122.539063 310.894531 122.003906 309.898438 121.316406 L 308.652344 120.445313 L 309.761719 125.78125 L 309.964844 125.917969 C 310.582031 126.339844 311.429688 126.710938 312.480469 127.019531 C 313.53125 127.328125 314.691406 127.488281 315.925781 127.488281 C 317.214844 127.488281 318.367188 127.316406 319.355469 126.980469 C 320.363281 126.636719 321.222656 126.140625 321.914063 125.511719 C 322.621094 124.871094 323.152344 124.101563 323.503906 123.226563 C 323.847656 122.367188 324.023438 121.394531 324.023438 120.34375 C 324.023438 119.359375 323.851563 118.457031 323.515625 117.65625 C 323.179688 116.863281 322.703125 116.148438 322.089844 115.539063 "/>
</g>
<g clip-path="url(#clip3)" clip-rule="nonzero">
<path style=" stroke:none;fill-rule:nonzero;fill:rgb(36.898804%,69.799805%,63.499451%);fill-opacity:1;" d="M 347.8125 123.09375 C 346.074219 123.523438 343.648438 123.683594 341.496094 122.957031 C 340.527344 122.628906 339.644531 122.140625 338.878906 121.5 C 338.121094 120.867188 337.507813 120.054688 337.046875 119.082031 C 336.585938 118.109375 336.355469 116.953125 336.355469 115.644531 C 336.355469 114.3125 336.59375 113.144531 337.0625 112.179688 C 337.53125 111.207031 338.152344 110.390625 338.914063 109.757813 C 339.679688 109.117188 340.558594 108.625 341.53125 108.296875 C 343.019531 107.792969 344.613281 107.683594 346.050781 107.929688 C 346.566406 108.015625 347.050781 108.125 347.507813 108.253906 C 347.957031 108.382813 348.359375 108.527344 348.722656 108.6875 C 349.082031 108.847656 349.394531 109 349.648438 109.148438 L 350.378906 109.574219 L 351.210938 105.464844 L 350.839844 105.246094 C 350.128906 104.828125 349.238281 104.480469 348.117188 104.179688 C 346 103.609375 342.816406 103.449219 339.8125 104.480469 C 338.359375 104.976563 337.03125 105.734375 335.855469 106.71875 C 334.675781 107.707031 333.699219 108.957031 332.949219 110.433594 C 332.191406 111.917969 331.808594 113.675781 331.808594 115.644531 C 331.808594 117.59375 332.183594 119.335938 332.925781 120.820313 C 333.664063 122.292969 334.636719 123.542969 335.824219 124.535156 C 336.996094 125.519531 338.332031 126.277344 339.792969 126.773438 C 341.25 127.269531 342.707031 127.523438 344.128906 127.523438 C 345.589844 127.523438 346.738281 127.433594 347.636719 127.253906 C 348.542969 127.074219 349.371094 126.785156 350.101563 126.394531 L 350.347656 126.261719 L 351.382813 121.460938 L 350.1875 122.175781 C 349.5625 122.550781 348.761719 122.863281 347.8125 123.09375 "/>
</g>
<g clip-path="url(#clip4)" clip-rule="nonzero">
<path style=" stroke:none;fill-rule:nonzero;fill:rgb(36.898804%,69.799805%,63.499451%);fill-opacity:1;" d="M 375.328125 115.609375 C 375.328125 116.855469 375.105469 117.980469 374.667969 118.953125 C 374.226563 119.929688 373.636719 120.757813 372.921875 121.414063 C 372.195313 122.074219 371.371094 122.585938 370.46875 122.929688 C 368.644531 123.628906 366.789063 123.613281 365.011719 122.929688 C 364.109375 122.585938 363.292969 122.074219 362.585938 121.417969 C 361.878906 120.761719 361.292969 119.933594 360.851563 118.953125 C 360.410156 117.980469 360.1875 116.855469 360.1875 115.609375 C 360.1875 114.363281 360.410156 113.246094 360.851563 112.285156 C 361.292969 111.3125 361.878906 110.492188 362.585938 109.835938 C 363.292969 109.179688 364.109375 108.671875 365.011719 108.324219 C 365.917969 107.976563 366.839844 107.800781 367.761719 107.800781 C 368.65625 107.800781 369.570313 107.976563 370.46875 108.324219 C 371.375 108.671875 372.199219 109.179688 372.921875 109.839844 C 373.636719 110.496094 374.226563 111.320313 374.667969 112.28125 C 375.105469 113.246094 375.328125 114.363281 375.328125 115.609375 Z M 376.082031 106.898438 C 374.953125 105.890625 373.652344 105.101563 372.214844 104.554688 C 369.339844 103.460938 366.179688 103.460938 363.304688 104.554688 C 361.867188 105.101563 360.566406 105.890625 359.4375 106.898438 C 358.300781 107.917969 357.375 109.175781 356.691406 110.636719 C 355.992188 112.101563 355.640625 113.777344 355.640625 115.609375 C 355.640625 117.46875 355.992188 119.152344 356.6875 120.621094 C 357.375 122.078125 358.300781 123.339844 359.4375 124.355469 C 360.566406 125.367188 361.867188 126.152344 363.304688 126.703125 C 364.742188 127.246094 366.238281 127.523438 367.761719 127.523438 C 369.28125 127.523438 370.777344 127.246094 372.214844 126.703125 C 373.648438 126.152344 374.949219 125.367188 376.082031 124.355469 C 377.214844 123.339844 378.140625 122.085938 378.832031 120.621094 C 379.523438 119.152344 379.875 117.464844 379.875 115.609375 C 379.875 113.777344 379.523438 112.101563 378.832031 110.636719 C 378.140625 109.171875 377.214844 107.914063 376.082031 106.898438 "/>
</g>
<g clip-path="url(#clip5)" clip-rule="nonzero">
<path style=" stroke:none;fill-rule:nonzero;fill:rgb(36.898804%,69.799805%,63.499451%);fill-opacity:1;" d="M 385.574219 108.210938 L 392.554688 108.210938 L 392.554688 127.113281 L 397.101563 127.113281 L 397.101563 108.210938 L 404.085938 108.210938 L 404.085938 104.175781 L 385.574219 104.175781 L 385.574219 108.210938 "/>
</g>
<g clip-path="url(#clip6)" clip-rule="nonzero">
<path style=" stroke:none;fill-rule:nonzero;fill:rgb(36.898804%,69.799805%,63.499451%);fill-opacity:1;" d="M 426.214844 123.074219 L 426.214844 127.109375 L 412.097656 127.109375 L 412.097656 104.167969 L 416.644531 104.167969 L 416.644531 123.074219 L 426.214844 123.074219 "/>
</g>
<g clip-path="url(#clip7)" clip-rule="nonzero">
<path style=" stroke:none;fill-rule:nonzero;fill:rgb(36.898804%,69.799805%,63.499451%);fill-opacity:1;" d="M 476.222656 117.585938 C 476.222656 117.914063 476.226563 118.242188 476.234375 118.5625 L 476.183594 118.503906 C 475.78125 118.035156 475.375 117.570313 474.964844 117.113281 C 474.5625 116.664063 474.167969 116.21875 473.785156 115.773438 C 473.390625 115.324219 473.039063 114.929688 472.71875 114.589844 L 463.226563 104.175781 L 460.078125 104.175781 L 460.078125 127.113281 L 464.625 127.113281 L 464.625 113.019531 C 464.625 112.609375 464.621094 112.1875 464.613281 111.757813 C 465.058594 112.277344 465.523438 112.820313 466.007813 113.382813 C 466.898438 114.410156 467.75 115.367188 468.570313 116.253906 L 478.914063 127.589844 L 480.769531 127.589844 L 480.769531 104.175781 L 476.222656 104.175781 L 476.222656 117.585938 "/>
</g>
<g clip-path="url(#clip8)" clip-rule="nonzero">
<path style=" stroke:none;fill-rule:nonzero;fill:rgb(36.898804%,69.799805%,63.499451%);fill-opacity:1;" d="M 494.101563 108.175781 L 496.324219 108.175781 C 497.484375 108.175781 498.59375 108.335938 499.625 108.644531 C 500.632813 108.949219 501.519531 109.410156 502.261719 110.015625 C 502.992188 110.617188 503.585938 111.386719 504.019531 112.308594 C 504.457031 113.234375 504.679688 114.355469 504.679688 115.644531 C 504.679688 116.933594 504.457031 118.058594 504.019531 118.980469 C 503.585938 119.902344 502.992188 120.683594 502.257813 121.292969 C 501.515625 121.910156 500.632813 122.367188 499.628906 122.660156 C 498.597656 122.960938 497.484375 123.113281 496.324219 123.113281 L 494.101563 123.113281 Z M 508.175781 110.730469 C 507.480469 109.308594 506.546875 108.09375 505.398438 107.125 C 504.257813 106.164063 502.929688 105.421875 501.457031 104.921875 C 499.992188 104.425781 498.449219 104.175781 496.871094 104.175781 L 489.589844 104.175781 L 489.589844 127.113281 L 496.871094 127.113281 C 498.449219 127.113281 499.992188 126.863281 501.457031 126.367188 C 502.933594 125.867188 504.257813 125.125 505.398438 124.160156 C 506.546875 123.191406 507.484375 121.980469 508.175781 120.558594 C 508.871094 119.128906 509.226563 117.476563 509.226563 115.644531 C 509.226563 113.8125 508.871094 112.160156 508.175781 110.730469 "/>
</g>
<g clip-path="url(#clip9)" clip-rule="nonzero">
<path style=" stroke:none;fill-rule:nonzero;fill:rgb(36.898804%,69.799805%,63.499451%);fill-opacity:1;" d="M 439.222656 117.65625 L 441.011719 113.183594 C 441.15625 112.894531 441.277344 112.554688 441.421875 112.195313 C 441.566406 112.554688 441.6875 112.894531 441.808594 113.183594 L 443.621094 117.65625 Z M 442.460938 103.878906 L 440.480469 103.878906 L 431.847656 124.402344 L 431.050781 126.261719 L 430.714844 127.109375 L 435.257813 127.109375 L 437.601563 121.5 L 445.242188 121.5 L 447.585938 127.109375 L 452.253906 127.109375 L 442.460938 103.878906 "/>
</g>
</g>
</svg>
