<svg xmlns="http://www.w3.org/2000/svg" height="800" width="1200" viewBox="-64.65 -57.9555 560.3 347.733"><path fill="#fff" d="M209.16 135.746c0 .353.14.764.427 1.23.286.467.613.87.993 1.207.564-.343 1.01-.696 1.34-1.05.334-.353.5-.77.5-1.247 0-.44-.153-.807-.463-1.1-.31-.294-.706-.44-1.193-.44-.427 0-.807.13-1.124.393-.32.26-.48.597-.48 1.007m-1.897 8.336c0 .517.196.954.593 1.31.4.354.87.53 1.417.53.927 0 1.904-.446 2.938-1.343l-2.774-3.108c-.68.43-1.21.854-1.598 1.267-.386.41-.576.857-.576 1.344m3.547-12.084c1.234 0 2.264.347 3.085 1.047.82.697 1.23 1.59 1.23 2.678 0 .787-.243 1.517-.733 2.194-.49.68-1.24 1.353-2.248 2.014l2.22 2.567c.654-.653 1.255-1.51 1.805-2.567h2.934c-.77 1.854-1.757 3.37-2.958 4.558l3.248 3.668h-4.038l-1.49-1.7c-.817.676-1.604 1.166-2.364 1.46-.76.296-1.668.446-2.725.446-1.303 0-2.4-.393-3.297-1.18-.894-.787-1.34-1.75-1.34-2.89 0-.951.323-1.801.966-2.552.644-.753 1.56-1.447 2.744-2.087-.563-.707-.973-1.35-1.237-1.924a4.22 4.22 0 01-.393-1.754c0-1.177.43-2.134 1.294-2.874.86-.737 1.957-1.104 3.297-1.104m24.924 6.939c.834 0 1.48-.193 1.95-.573.467-.38.7-.944.7-1.694 0-1.487-.956-2.231-2.867-2.231h-2.13v4.498zm.774-6.939c1.513 0 2.74.44 3.684 1.314.944.874 1.417 2 1.417 3.381 0 1.397-.477 2.524-1.434 3.391-.957.864-2.217 1.29-3.78 1.29h-3.008v6.783h-3.125v-16.159zm13.836 9.854h5.215l-2.727-6.396zm4.075-9.853l7.132 16.158h-3.294l-1.677-3.935h-7.183l-1.56 3.935h-3.271l6.659-16.158zm16.341 6.893c.82 0 1.46-.207 1.927-.614.467-.41.7-.967.7-1.677 0-.74-.23-1.294-.693-1.66-.464-.364-1.124-.55-1.977-.55h-1.944v4.5zm.707-6.893c1.52 0 2.757.42 3.711 1.26.957.841 1.434 1.938 1.434 3.285 0 .917-.234 1.718-.71 2.401-.474.68-1.177 1.217-2.111 1.61a4.68 4.68 0 011.377 1.134c.4.477.9 1.287 1.494 2.418.983 1.957 1.717 3.307 2.197 4.048h-3.481c-.243-.354-.563-.92-.974-1.698-.893-1.72-1.55-2.88-1.967-3.477-.413-.597-.813-1.02-1.2-1.27a2.392 2.392 0 00-1.33-.38h-1.134v6.825h-3.121v-16.156zm10.403 2.44v-2.44h14.596v2.44h-5.739v13.718h-3.121v-13.718zm22.589-2.441l9.6 11.277v-11.277h3.05v16.159h-2.684l-9.653-11.464v11.464h-3.054v-16.159zm21.539 9.123v4.592h7.482v2.444h-10.606v-16.159h10.443v2.441h-7.32v4.245h7.006v2.437zm17.928-2.229c.817 0 1.457-.207 1.924-.614.467-.41.7-.967.7-1.677 0-.74-.23-1.294-.693-1.66-.464-.364-1.124-.55-1.977-.55h-1.944v4.5zm.704-6.893c1.52 0 2.757.42 3.714 1.26.954.841 1.434 1.938 1.434 3.285 0 .917-.237 1.718-.713 2.401-.474.68-1.178 1.217-2.111 1.61a4.68 4.68 0 011.377 1.134c.4.477.9 1.287 1.494 2.418.983 1.957 1.717 3.307 2.197 4.048h-3.481c-.24-.354-.564-.92-.974-1.698-.893-1.72-1.547-2.88-1.964-3.477-.416-.597-.817-1.02-1.203-1.27a2.392 2.392 0 00-1.33-.38h-1.134v6.825h-3.121v-16.156zm16.763-.209c1.574 0 3.087.393 4.541 1.18v2.778c-1.67-1.01-3.154-1.517-4.451-1.517-.784 0-1.4.15-1.84.456-.444.307-.668.71-.668 1.22 0 .611.41 1.175 1.237 1.688.234.157 1.12.587 2.671 1.297 1.327.624 2.284 1.317 2.871 2.08.584.764.877 1.681.877 2.752 0 1.39-.5 2.507-1.497 3.36-1 .854-2.29 1.281-3.881 1.281-1.034 0-1.92-.113-2.668-.343-.74-.227-1.574-.617-2.5-1.174v-3.074c1.727 1.43 3.354 2.147 4.878 2.147.767 0 1.38-.167 1.854-.497.466-.33.703-.77.703-1.317 0-.747-.407-1.357-1.224-1.827a59.9 59.9 0 00-2.627-1.33c-1.27-.58-2.224-1.254-2.851-2.025-.63-.77-.94-1.663-.94-2.68 0-1.358.503-2.441 1.514-3.248 1.01-.804 2.344-1.207 4-1.207"/><path fill-rule="evenodd" fill="#578626" d="M132.155 0H431v231.822H132.155z"/><path fill-rule="evenodd" fill="#c4d201" d="M88.787 0h34.694v231.822H88.787z"/><path fill-rule="evenodd" fill="#02462f" d="M43.526 0h17.347v231.822H43.526z"/><path fill-rule="evenodd" fill="#9f9b15" d="M0 0h8.674v231.822H0z"/><path fill-rule="evenodd" fill="#fff" d="M391.378 85.384v30.132h17.643v-3.887h-13.29v-9.367h12.448v-3.887h-12.448V89.27h12.896v-3.886h-17.25m-192.852 0l-8.271 20.765-8.444-20.765h-4.129l-8.395 20.765-8.359-20.765h-4.35l12.261 30.399h.844l10.043-24.655 9.956 24.655h.844l12.306-30.399h-4.306m44.75 30.152h4.356V85.403h-4.356zm129.27-12.22l-3.297-1.99c-2.067-1.256-3.375-2.51-4.317-3.674-.977-1.208-1.465-2.692-1.465-4.273 0-2.372.827-4.299 2.483-5.78 1.656-1.48 3.863-2.196 6.508-2.196 2.79 0 4.854.707 6.964 2.12v4.895c-2.184-2.089-4.533-3.133-7.05-3.133-1.417 0-2.58.326-3.49.979-.913.65-1.368 1.505-1.368 2.522 0 .902.22 1.651.892 2.439.671.787 1.865 1.71 3.352 2.576l3.438 1.95c3.697 2.195 5.42 4.99 5.42 8.382 0 2.415-.84 4.405-2.468 5.916-1.626 1.51-3.715 2.314-6.317 2.266-2.987-.052-5.663-.88-8.178-2.774v-5.478c2.343 2.952 5.053 4.364 8.133 4.364 1.36 0 2.491-.314 3.396-1.065.903-.753 1.396-1.694 1.396-2.826 0-1.835-1.371-3.573-4.031-5.22m-148.118-.373l-4.89-10.916-4.535 10.916zm-6.374-17.54h3.05l13.588 30.31h-4.44l-4.04-8.93h-12.93l-3.787 8.93h-4.46l13.019-30.31zm38.398 0h25.4v3.834h-10.519v26.299h-4.353V89.237h-10.528zm40.943 3.649h-1.301v9.51h1.648c2.2 0 3.706-.185 4.524-.559a4.238 4.238 0 001.91-1.694c.455-.755.681-1.614.681-2.577 0-.95-.252-1.808-.759-2.579-.506-.768-1.218-1.31-2.136-1.627-.918-.316-2.44-.475-4.567-.475zm-5.728 26.466V85.385h7.68c3.066 0 5.5.754 7.301 2.265 1.799 1.51 2.7 3.55 2.7 6.124 0 1.756-.44 3.272-1.322 4.552-.884 1.28-2.07 2.236-3.718 2.868.968.634 1.916 1.497 2.842 2.59.925 1.092 2.18 2.997 3.858 5.715a57.393 57.393 0 002.583 3.86l1.606 2.159h-5.22s-1.394-2.18-1.524-2.354l-2.188-3.389-1.618-2.35c-.897-1.239-1.72-2.262-2.464-2.995-.747-.732-1.333-1.22-1.933-1.543-.601-.323-1.695-.485-3.116-.485h-1.128v13.116zm46.31-26.526c-3.468 0-6.317 1.077-8.55 3.235-2.23 2.156-3.347 4.91-3.347 8.26 0 3.249 1.12 5.952 3.358 8.109 2.24 2.156 5.043 3.235 8.409 3.235 3.38 0 6.2-1.1 8.462-3.301 2.26-2.199 3.391-4.938 3.391-8.215 0-3.193-1.13-5.878-3.39-8.056-2.262-2.179-5.04-3.267-8.333-3.267zm-.174-4.099c4.68 0 8.58 1.475 11.693 4.422 3.114 2.947 4.672 6.642 4.672 11.085 0 4.443-1.57 8.12-4.714 11.032-3.143 2.912-7.106 4.367-11.889 4.367-4.566 0-8.37-1.455-11.413-4.367-3.04-2.913-4.562-6.56-4.562-10.945 0-4.5 1.531-8.225 4.595-11.172 3.063-2.947 6.935-4.42 11.618-4.42z"/><path d="M208.96 135.668c0 .36.142.777.434 1.252.291.474.624.885 1.01 1.227.573-.349 1.028-.709 1.363-1.068.34-.36.51-.783.51-1.268 0-.448-.157-.82-.472-1.12-.316-.298-.72-.447-1.214-.447a1.74 1.74 0 00-1.143.4 1.26 1.26 0 00-.488 1.024m-1.93 8.478c0 .526.2.97.604 1.333a2.1 2.1 0 001.44.54c.944 0 1.937-.455 2.988-1.368l-2.821-3.16c-.692.437-1.231.868-1.624 1.289-.394.417-.587.871-.587 1.366m3.608-12.29c1.255 0 2.303.353 3.137 1.065.834.71 1.251 1.618 1.251 2.724 0 .8-.247 1.543-.746 2.231-.498.692-1.261 1.377-2.285 2.048l2.258 2.611c.665-.664 1.275-1.536 1.835-2.61h2.984c-.783 1.885-1.787 3.428-3.008 4.635l3.303 3.73h-4.107l-1.516-1.73c-.83.69-1.63 1.188-2.404 1.486-.773.302-1.695.454-2.77.454-1.326 0-2.442-.4-3.354-1.2-.91-.8-1.364-1.78-1.364-2.94 0-.967.33-1.831.984-2.594.654-.767 1.587-1.472 2.79-2.123-.572-.72-.99-1.374-1.257-1.957a4.291 4.291 0 01-.4-1.784c0-1.197.437-2.17 1.315-2.923.875-.75 1.99-1.122 3.354-1.122m24.757 7.057c.847 0 1.505-.197 1.983-.584.475-.386.713-.96.713-1.722 0-1.513-.974-2.269-2.917-2.269h-2.167v4.575zm.786-7.057c1.54 0 2.788.447 3.748 1.336.96.888 1.44 2.034 1.44 3.438 0 1.421-.484 2.568-1.457 3.45-.974.878-2.255 1.312-3.846 1.312h-3.059v6.897h-3.177v-16.433zm14.109 10.021h5.304l-2.774-6.504zm4.144-10.021l7.254 16.434h-3.35l-1.706-4.002h-7.305l-1.587 4.002h-3.327l6.773-16.434zm16.394 7.011c.835 0 1.486-.21 1.96-.624.475-.418.713-.984.713-1.706 0-.753-.234-1.316-.706-1.689-.471-.37-1.142-.56-2.01-.56h-1.978v4.579zm.72-7.01c1.546 0 2.804.427 3.774 1.282.973.854 1.458 1.97 1.458 3.34 0 .933-.237 1.747-.722 2.442-.482.692-1.197 1.238-2.147 1.638a4.76 4.76 0 011.4 1.153c.408.485.916 1.309 1.52 2.458 1 1.99 1.746 3.364 2.235 4.117h-3.54c-.248-.36-.574-.936-.991-1.726-.909-1.75-1.577-2.93-2-3.537-.421-.607-.828-1.038-1.222-1.292a2.432 2.432 0 00-1.353-.387h-1.153v6.942h-3.174v-16.43zm25.103-.001v2.482h-5.836v13.951h-3.174v-13.95h-5.833v-2.482zm20.607 0v16.433h-2.73l-9.817-11.659v11.66h-3.106v-16.434h2.787l9.763 11.469v-11.47zm16.679 0v2.482h-7.444v4.317h7.125v2.479h-7.125v4.67h7.61v2.485h-10.787v-16.433zm10.506 7.011c.83 0 1.482-.21 1.957-.624.474-.418.712-.984.712-1.706 0-.753-.234-1.316-.706-1.689-.471-.37-1.142-.56-2.01-.56h-1.978v4.579zm.715-7.01c1.547 0 2.805.427 3.778 1.282.97.854 1.458 1.97 1.458 3.34 0 .933-.24 1.747-.725 2.442-.482.692-1.197 1.238-2.147 1.638a4.76 4.76 0 011.4 1.153c.408.485.916 1.309 1.52 2.458 1 1.99 1.746 3.364 2.235 4.117h-3.54c-.245-.36-.574-.936-.991-1.726-.909-1.75-1.573-2.93-1.997-3.537-.424-.607-.831-1.038-1.225-1.292a2.432 2.432 0 00-1.353-.387h-1.153v6.942h-3.174v-16.43zm16.26-.213c1.6 0 3.14.4 4.619 1.2v2.825c-1.699-1.028-3.208-1.543-4.527-1.543-.797 0-1.424.153-1.872.465-.451.312-.678.722-.678 1.24 0 .621.417 1.194 1.258 1.717.237.16 1.14.597 2.716 1.319 1.35.634 2.323 1.34 2.92 2.116.593.777.892 1.71.892 2.798 0 1.414-.509 2.55-1.523 3.418-1.017.868-2.33 1.302-3.947 1.302-1.051 0-1.953-.115-2.713-.35-.753-.23-1.6-.627-2.543-1.193v-3.126c1.756 1.454 3.411 2.183 4.96 2.183.78 0 1.405-.17 1.886-.505.475-.336.716-.783.716-1.34 0-.759-.414-1.38-1.245-1.858a62.065 62.065 0 00-2.672-1.353c-1.292-.59-2.262-1.275-2.9-2.058-.64-.784-.956-1.692-.956-2.727 0-1.38.512-2.482 1.54-3.303 1.027-.817 2.384-1.227 4.07-1.227" fill="#fff"/></svg>