<?xml version="1.0" standalone="no"?>
<!DOCTYPE svg PUBLIC "-//W3C//DTD SVG 1.1//EN" "http://www.w3.org/Graphics/SVG/1.1/DTD/svg11.dtd" >
<svg xmlns="http://www.w3.org/2000/svg" xmlns:xlink="http://www.w3.org/1999/xlink" version="1.1">
<metadata>
Created by FontForge 20170731 at Wed Sep 24 10:13:59 2003
 By Aleksey,,,
\251 M Klein   9.03
</metadata>
<defs>
<font id="GeosansLight" horiz-adv-x="392" >
  <font-face 
    font-family="GeosansLight"
    font-weight="500"
    font-stretch="normal"
    units-per-em="1000"
    panose-1="2 0 6 3 2 0 0 2 0 3"
    ascent="800"
    descent="-200"
    x-height="413"
    cap-height="714"
    bbox="-38 -212 1087 903"
    underline-thickness="19"
    underline-position="-160"
    unicode-range="U+0005-E00B"
  />
<missing-glyph horiz-adv-x="1000" 
 />
    <glyph glyph-name=".notdef" horiz-adv-x="1000" 
 />
    <glyph glyph-name=".null" horiz-adv-x="0" 
 />
    <glyph glyph-name="nonmarkingreturn" horiz-adv-x="333" 
 />
    <glyph glyph-name="breve" horiz-adv-x="362" 
d="M296 531l-18 22q-37 -37 -85 -37q-52 0 -91 39l-21 -24q41 -44 108 -44q69 0 107 44z" />
    <glyph glyph-name="dotaccent" horiz-adv-x="311" 
d="M155 529q-8 33 -33 33q-33 -6 -33 -33q1 -15 10 -24q12 -9 23 -9q33 0 33 33z" />
    <glyph glyph-name="ring" horiz-adv-x="296" 
d="M236 538q0 33 -25 58t-58 25t-58 -25t-25 -58t25 -58t58 -25t58 25t25 58zM215 539q0 -24 -19 -43t-43 -19t-43 19t-19 43t19 43t43 19t43 -19t19 -43z" />
    <glyph glyph-name="ogonek" horiz-adv-x="265" 
d="M194 -126v40l-23 -15q-15 -6 -25 -6q-17 0 -24 10q-6 13 -6 26q0 16 6 33l19 38h-46q-19 -36 -20 -42l-5 -22v-22q0 -27 17 -46q16 -18 43 -18l19 2l18 6q18 6 27 16z" />
    <glyph glyph-name="caron" horiz-adv-x="378" 
d="M309 559l-21 22l-100 -99l-100 99l-21 -22l121 -120z" />
    <glyph glyph-name="dotlessi" unicode="&#xd;" horiz-adv-x="184" 
d="M113 0v413h-41v-413h41z" />
    <glyph glyph-name="fraction" horiz-adv-x="822" 
d="M804 -101l-161 161q142 102 142 297q0 162 -103 265q-104 102 -265 102q-162 0 -265 -103q-102 -102 -102 -264t103 -265q102 -102 264 -102q108 0 193 49l139 -140h55zM729 248q-30 -98 -116 -158l-132 132h-53l151 -152q-72 -39 -162 -39q-143 0 -235 92
q-91 91 -91 234t92 235q90 92 234 92t236 -92q88 -88 91 -224l-5 5q-25 25 -58 25t-58 -25t-25 -58t25 -58t58 -25q28 0 48 16zM743 322q-1 -6 -1.5 -12.5t-1.5 -12.5q-4 -12 -16 -24q-19 -19 -43 -19t-43 19t-19 43t19 43t43 19t43 -19q16 -16 19 -37zM404 315q0 33 -25 58
t-58 25t-58 -25t-25 -58t25 -58t58 -25t58 25t25 58zM383 316q0 -24 -19 -43t-43 -19t-43 19t-19 43t19 43t43 19t43 -19t19 -43zM309 299q0 -9 6.5 -15.5t15.5 -6.5t15.5 6.5t6.5 15.5t-6.5 15.5t-15.5 6.5t-15.5 -6.5t-6.5 -15.5zM670 296q0 -9 6.5 -15.5t15.5 -6.5
t15.5 6.5t6.5 15.5t-6.5 15.5t-15.5 6.5t-15.5 -6.5t-6.5 -15.5z" />
    <glyph glyph-name="fi" horiz-adv-x="471" 
d="M442 372v41h-126v237q0 45 -36 72q-32 24 -79 24q-48 0 -81 -27t-33 -74v-232h-56v-41h56v-372h41v372h148v-372h40v372h126zM276 413h-148v225q0 68 73 68q75 0 75 -66v-227z" />
    <glyph glyph-name="fl" horiz-adv-x="459" 
d="M432 696v39l-26 4q-4 1 -10 1.5t-15 0.5q-30 0 -56 -14q-31 -16 -34 -44q-27 37 -90 37q-52 0 -83 -30t-31 -81v-196h-56v-41h56v-372h41v372h153v-372h40v372h98v41h-98v225q0 37 19 52q15 12 40 12l33 -3zM281 413h-153v191q0 76 73 76q27 0 49 -13q22 -12 31 -33v-221
z" />
    <glyph glyph-name="space" unicode=" " horiz-adv-x="255" 
 />
    <glyph glyph-name="exclam" unicode="!" horiz-adv-x="204" 
d="M122 148v566h-40v-566h40zM139 32q-3 17 -11 25q-11 11 -25 11q-36 -6 -36 -36q0 -36 36 -36q36 6 36 36z" />
    <glyph glyph-name="quotedbl" unicode="&#x22;" horiz-adv-x="270" 
d="M214 727h-41l11 -160h20zM102 727h-41l10 -160h21z" />
    <glyph glyph-name="numbersign" unicode="#" horiz-adv-x="541" 
d="M522 516h-131l30 127h-24l-31 -127h-139l30 127h-24l-31 -127h-139l-8 -24h141l-28 -115h-128l-8 -25h130l-30 -126h24l31 126h140l-33 -131h25l32 131h134l8 25h-136l28 115h129zM361 492l-28 -115h-140l27 115h141z" />
    <glyph glyph-name="dollar" unicode="$" horiz-adv-x="474" 
d="M447 195q0 139 -174 207v275q73 -10 106 -70l38 17q-47 93 -144 93v53h-40v-53q-69 0 -114 -48q-45 -47 -45 -116q0 -74 45 -117q34 -34 114 -62v-340q-122 0 -156 127l-41 -14q18 -73 70 -114q53 -41 127 -41v-53h40v54q85 0 132 60q42 54 42 142zM233 418
q-55 22 -81 47q-36 33 -36 84q0 52 32 87q30 33 85 41v-259zM406 195q0 -69 -31 -112q-34 -49 -102 -49v324q133 -54 133 -163z" />
    <glyph glyph-name="percent" unicode="%" horiz-adv-x="531" 
d="M292 572q0 51 -37 88t-88 37t-88 -37q-36 -38 -36 -88q0 -48 38 -86q37 -37 86 -37q51 0 89 36q36 34 36 87zM490 714h-40l-388 -714h40zM492 115q0 51 -37 88t-88 37t-88 -37q-36 -38 -36 -88q0 -48 38 -86q37 -37 86 -37q51 0 89 36q36 34 36 87zM251 572
q0 -33 -25 -58q-29 -24 -59 -24q-33 0 -58 25q-25 24 -25 57q0 34 25 59q24 25 58 25t59 -25t25 -59zM451 115q0 -32 -26 -58q-26 -24 -58 -24q-33 0 -58 25q-25 24 -25 57q0 34 25 59q24 25 58 25t59 -25t25 -59z" />
    <glyph glyph-name="ampersand" unicode="&#x26;" horiz-adv-x="602" 
d="M563 205l-22 29l-104 -85l-156 237l73 50q88 60 88 130q0 68 -42 104t-111 36q-60 0 -103 -40q-42 -39 -42 -99q0 -32 15 -63l30 -51l40 -60l-113 -83q-79 -73 -79 -157q0 -70 45 -113q46 -44 118 -44q104 0 226 98l63 -94h47l-79 119zM405 566q-1 -18 -5 -27l-14 -26
q-10 -14 -22.5 -25.5t-26.5 -21.5l-76 -51l-39 59l-28 45q-11 19 -11 48q0 43 32 73q32 29 75 29q52 0 84 -26q31 -25 31 -77zM406 124q-17 -14 -31 -23.5t-25 -16.5q-77 -49 -149 -49q-54 0 -88 33q-35 32 -35 85q0 67 64 130q13 13 39 32.5t67 47.5z" />
    <glyph glyph-name="quotesingle" unicode="'" horiz-adv-x="164" 
d="M103 714h-42l10 -159h22z" />
    <glyph glyph-name="parenleft" unicode="(" horiz-adv-x="184" 
d="M148 -62q-75 198 -75 408q0 35 4 79t12 96q10 66 24.5 123.5t34.5 109.5h-35q-75 -200 -75 -408q0 -39 4 -84t12 -96q5 -26 8.5 -43t5.5 -27q4 -19 6.5 -32t4.5 -21q7 -27 15.5 -53t18.5 -52h35z" />
    <glyph glyph-name="parenright" unicode=")" horiz-adv-x="194" 
d="M164 346q0 44 -3.5 87.5t-10.5 88.5q-20 123 -61 232h-35q75 -206 75 -408q0 -38 -4 -82t-12 -94q-10 -63 -24.5 -120.5t-34.5 -111.5h35q75 193 75 408z" />
    <glyph glyph-name="asterisk" unicode="*" horiz-adv-x="289" 
d="M273 557q-6 29 -50 45q-10 5 -27.5 9t-42.5 9l74 23q46 23 46 40q-2 23 -23 23q-50 -11 -102 -76q9 15 9 27l7 31l5 41q0 38 -26 38q-27 -5 -27 -38l6 -49l15 -50l-47 48q-28 28 -55 28q-22 -6 -22 -25q0 -24 47 -42l33 -12l39 -7q-119 -30 -119 -62q0 -24 21 -24
q32 6 56 30l47 45l-19 -66q-3 -8 -3 -32q0 -38 28 -37q24 1 24 39l-5 44l-14 52l49 -47q27 -26 53 -26q23 0 23 21z" />
    <glyph glyph-name="plus" unicode="+" horiz-adv-x="378" 
d="M316 244v41h-102v102h-46v-102h-102v-41h102v-102h46v102h102z" />
    <glyph glyph-name="comma" unicode="," horiz-adv-x="179" 
d="M155 54l-35 15l-74 -163l13 -9z" />
    <glyph glyph-name="hyphen" unicode="-" horiz-adv-x="271" 
d="M229 244v41h-211v-41h211z" />
    <glyph glyph-name="period" unicode="." horiz-adv-x="113" 
d="M84 27q-8 33 -33 33q-33 -6 -33 -33q1 -15 10 -24q12 -9 23 -9q33 0 33 33z" />
    <glyph glyph-name="slash" unicode="/" horiz-adv-x="287" 
d="M272 729h-39l-210 -729h41z" />
    <glyph glyph-name="zero" unicode="0" horiz-adv-x="556" 
d="M542 363q0 141 -59 247q-72 127 -203 127t-203 -127q-59 -104 -59 -247q0 -142 59 -246q72 -127 203 -127q132 0 204 126q58 103 58 247zM499 363q0 -137 -55 -228q-61 -103 -164 -103q-111 0 -171 116q-47 92 -47 215q0 135 55 229q62 104 163 104q113 0 172 -116
q47 -92 47 -217z" />
    <glyph glyph-name="one" unicode="1" horiz-adv-x="545" 
d="M336 0v714h-135l-27 -41h121v-673h41z" />
    <glyph glyph-name="two" unicode="2" horiz-adv-x="545" 
d="M494 530q0 85 -61 137q-61 53 -146 53q-99 0 -159 -66q-45 -51 -52 -103h45q11 46 39 77q46 52 127 52q66 0 116 -43q50 -44 50 -107q0 -65 -42 -125l-350 -405h432v41h-342l205 232q28 32 46 53.5t27 32.5q65 84 65 171z" />
    <glyph glyph-name="three" unicode="3" horiz-adv-x="545" 
d="M474 193q0 150 -140 192q134 30 134 163q0 83 -55 132q-55 50 -137 50q-79 0 -131 -45q-52 -44 -61 -122h47q25 126 145 126q63 0 103 -40q40 -39 40 -101q0 -65 -37 -99q-38 -35 -101 -35h-42v-59h42q46 0 90 -35q58 -46 58 -127q0 -65 -47 -112q-47 -45 -113 -45
q-51 0 -94 33q-44 33 -57 82h-44q17 -74 68 -115q53 -41 127 -41q89 0 147 55q58 54 58 143z" />
    <glyph glyph-name="four" unicode="4" horiz-adv-x="545" 
d="M538 136v40h-83v548l-409 -588h367v-136h42v136h83zM413 176h-294l294 421v-421z" />
    <glyph glyph-name="five" unicode="5" horiz-adv-x="545" 
d="M514 255q0 114 -80 182q-78 66 -174 60l-42 -3l-40 -5l43 184h242v41h-274l-71 -277q37 14 71 14q15 4 24 4h15l32 1q83 3 146 -51q67 -57 67 -150q0 -95 -60 -159q-60 -65 -153 -65q-78 0 -127 36q-39 29 -68 88l-38 -15q63 -150 233 -150q113 0 184 75q70 74 70 190z
" />
    <glyph glyph-name="six" unicode="6" horiz-adv-x="545" 
d="M520 229q0 104 -71 175q-70 70 -175 70l-45 -4l-43 -12l-42 -21l152 277h-47l-179 -321q-9 -17 -17 -35.5t-13 -39.5q-5 -17 -7 -28t-3 -17t-1 -12v-10v-22q0 -108 68 -178q68 -68 177 -68q106 0 176 70t70 176zM480 229q0 -88 -59 -147t-147 -59t-147 59q-58 58 -58 147
q0 85 60 145t145 60q86 0 146 -61q60 -62 60 -144z" />
    <glyph glyph-name="seven" unicode="7" horiz-adv-x="545" 
d="M533 714h-502v-41h426l-433 -657l34 -26z" />
    <glyph glyph-name="eight" unicode="8" horiz-adv-x="545" 
d="M482 190q0 79 -49 131q-34 37 -88 57q53 17 82 62q30 46 30 102q0 82 -51 133t-133 51q-81 0 -132 -52q-51 -51 -51 -132q0 -53 29 -100q30 -49 80 -64q-63 -24 -98 -73q-35 -50 -35 -115q0 -90 59 -147q59 -56 150 -56q90 0 149 57q58 57 58 146zM417 542
q0 -62 -41 -103q-20 -20 -45.5 -32t-57.5 -12q-31 0 -56.5 13t-45.5 33q-41 41 -41 101q0 62 41 103t102 41q62 0 103 -41t41 -103zM442 190q0 -71 -49 -117q-47 -46 -120 -46q-72 0 -120 48q-47 47 -47 115q0 67 50 117q25 24 54 38.5t63 14.5q35 0 64.5 -14.5t54.5 -39.5
q50 -48 50 -116z" />
    <glyph glyph-name="nine" unicode="9" horiz-adv-x="545" 
d="M521 473q0 106 -70 176q-69 70 -175 70t-176 -70t-70 -176t70 -176q70 -69 176 -69l45 4l43 12l42 21l-142 -257l38 -18l178 319q10 18 17.5 36.5t12.5 38.5q6 23 8.5 45.5t2.5 43.5zM481 473q0 -87 -59 -146t-146 -59q-89 0 -147 60q-59 61 -59 145q0 88 59 147t147 59
t147 -59q58 -58 58 -147z" />
    <glyph glyph-name="colon" unicode=":" horiz-adv-x="163" 
d="M117 322q-8 33 -33 33q-33 -6 -33 -33q1 -15 10 -24q12 -9 23 -9q33 0 33 33zM117 27q-8 33 -33 33q-33 -6 -33 -33q1 -15 10 -24q12 -9 23 -9q33 0 33 33z" />
    <glyph glyph-name="semicolon" unicode=";" horiz-adv-x="204" 
d="M136 322q-8 33 -33 33q-33 -6 -33 -33q1 -15 10 -24q12 -9 23 -9q33 0 33 33zM150 54l-35 15l-74 -163l13 -9z" />
    <glyph glyph-name="less" unicode="&#x3c;" horiz-adv-x="316" 
d="M283 110v45l-178 108l178 108v45l-251 -153z" />
    <glyph glyph-name="equal" unicode="=" horiz-adv-x="296" 
d="M263 305v41h-226v-41h226zM263 183v40h-226v-40h226z" />
    <glyph glyph-name="greater" unicode="&#x3e;" horiz-adv-x="316" 
d="M297 263l-251 153v-45l177 -108l-177 -108v-45z" />
    <glyph glyph-name="question" unicode="?" horiz-adv-x="469" 
d="M432 572q0 75 -57 116q-51 36 -129 36q-145 0 -200 -133l38 -17q29 50 56 72q46 38 106 38q58 0 99 -26q46 -30 46 -86q0 -43 -35 -84q-8 -10 -27 -25t-48 -37l-85 -63q-70 -52 -70 -117q0 -45 32 -71t71 -23l29 2l23 6q24 11 35 22l-24 33q-26 -21 -63 -21q-25 0 -42 14
t-17 38q0 52 50 88l84 61q36 26 57 42t26 23q45 51 45 112zM259 32q-6 35 -35 35q-35 -6 -35 -35q6 -35 35 -35q35 0 35 35z" />
    <glyph glyph-name="at" unicode="@" horiz-adv-x="596" 
d="M540 105q24 42 24 104q0 106 -80 177q-77 68 -185 68q-111 0 -188 -74t-77 -183q0 -107 66 -179q71 -80 198 -80q62 0 110 19q49 18 72 44l-19 19q-24 -28 -76 -44q-45 -12 -85 -12q-106 0 -173 64q-67 63 -67 169q0 98 70 164q68 67 169 67q99 0 167 -61q72 -63 72 -158
q0 -52 -20 -85q-25 -44 -62 -44q-20 0 -32 15q-15 21 -12 54l13 163h-25l-4 -54q-27 60 -103 60q-59 0 -99 -39q-39 -39 -39 -98t30 -93q31 -35 88 -35q81 0 113 57q3 -19 17 -36q18 -21 49 -21q58 0 88 52zM359 265q24 -27 24 -69q0 -51 -30 -84q-28 -32 -80 -32
q-91 0 -91 101q0 46 32 78q33 33 79 33q42 0 66 -27z" />
    <glyph glyph-name="A" unicode="A" horiz-adv-x="633" 
d="M602 0l-286 737l-285 -737h40l83 214h325l82 -214h41zM462 255h-292l146 378z" />
    <glyph glyph-name="B" unicode="B" horiz-adv-x="559" 
d="M523 207q0 77 -45 130q-46 53 -121 68q77 44 77 138q0 82 -52 128q-49 43 -132 43h-174v-714h223q94 0 159 58q65 57 65 149zM393 543q0 -58 -38 -94t-96 -36h-143v260h137q59 0 100 -36q40 -34 40 -94zM483 207q0 -74 -54 -120q-53 -46 -129 -46h-184v331h184
q77 0 128 -44q55 -46 55 -121z" />
    <glyph glyph-name="C" unicode="C" horiz-adv-x="702" 
d="M668 77v47q-58 -42 -96 -61q-66 -32 -155 -32q-143 0 -235 92q-91 91 -91 234t92 235t234 92q83 0 159 -31q50 -21 92 -56v51q-41 32 -85 49q-74 27 -166 27q-162 0 -265 -103q-102 -102 -102 -264t103 -265q102 -102 264 -102q14 0 27 0.5t24 1.5q96 9 152 50z" />
    <glyph glyph-name="D" unicode="D" horiz-adv-x="688" 
d="M633 358q0 147 -85 248q-90 108 -234 108h-238v-714h238q145 0 235 108q84 102 84 250zM592 358q0 -147 -87 -235q-81 -82 -191 -82h-198v633h198q127 0 205 -96q73 -89 73 -220z" />
    <glyph glyph-name="E" unicode="E" horiz-adv-x="473" 
d="M414 0v41h-302v328h302v44h-302v260h302v41h-343v-714h343z" />
    <glyph glyph-name="F" unicode="F" horiz-adv-x="433" 
d="M386 372v41h-270v260h270v41h-310v-714h40v372h270z" />
    <glyph glyph-name="G" unicode="G" horiz-adv-x="822" 
d="M785 345h-281v-41h236q-10 -96 -80 -172q-92 -101 -243 -101q-141 0 -235 92q-92 92 -92 234q0 141 93 234t234 93q173 0 269 -132l33 25q-110 147 -302 147q-160 0 -264 -104q-103 -103 -103 -263q0 -162 103 -265q102 -102 264 -102q170 0 273 109q95 100 95 246z" />
    <glyph glyph-name="H" unicode="H" horiz-adv-x="615" 
d="M550 0v714h-41v-301h-393v301h-40v-714h40v372h393v-372h41z" />
    <glyph glyph-name="I" unicode="I" horiz-adv-x="192" 
d="M117 0v714h-40v-714h40z" />
    <glyph glyph-name="J" unicode="J" horiz-adv-x="315" 
d="M255 142v572h-41v-570q0 -111 -75 -111q-49 0 -74 46l-35 -22q35 -65 110 -65q115 0 115 150z" />
    <glyph glyph-name="K" unicode="K" horiz-adv-x="524" 
d="M514 0l-372 373l342 341h-58l-319 -317v317h-41v-714h41v339l6 6l344 -345h57z" />
    <glyph glyph-name="L" unicode="L" horiz-adv-x="356" 
d="M317 0v41h-201v673h-40v-714h241z" />
    <glyph glyph-name="M" unicode="M" horiz-adv-x="902" 
d="M881 0l-186 736l-243 -638l-243 637l-186 -735h41l153 601l235 -619l235 618l152 -600h42z" />
    <glyph glyph-name="N" unicode="N" horiz-adv-x="715" 
d="M651 -12v726h-41v-620l-533 625v-719h40v606z" />
    <glyph glyph-name="O" unicode="O" horiz-adv-x="822" 
d="M785 357q0 162 -103 265q-104 102 -265 102q-162 0 -265 -103q-102 -102 -102 -264t103 -265q102 -102 264 -102t265 103q103 102 103 264zM744 357q0 -145 -91 -236q-92 -90 -236 -90q-143 0 -235 92q-91 91 -91 234t92 235t234 92q144 0 236 -92q91 -91 91 -235z" />
    <glyph glyph-name="P" unicode="P" horiz-adv-x="490" 
d="M444 537q0 81 -56 129t-138 48h-174v-714h40v357h134q82 0 138 50q56 48 56 130zM403 537q0 -65 -44 -103q-44 -36 -110 -36h-133v275h133q67 0 108 -34q46 -37 46 -102z" />
    <glyph glyph-name="Q" unicode="Q" horiz-adv-x="822" 
d="M793 357q0 162 -103 265q-104 102 -265 102q-162 0 -265 -103q-102 -102 -102 -264t103 -265q102 -102 264 -102t265 103q103 102 103 264zM752 357q0 -145 -91 -236q-92 -90 -236 -90q-143 0 -235 92q-91 91 -91 234t92 235q90 92 234 92t236 -92q91 -91 91 -235z
M637 -96v41h-211v-41h211z" />
    <glyph glyph-name="R" unicode="R" horiz-adv-x="484" 
d="M468 0l-229 357q43 0 79 10.5t62.5 32.5t41 56t14.5 81q0 43 -15.5 76t-41.5 55.5t-62 34t-76 11.5h-165v-714h40v357h77l227 -357h48zM394 538q0 -68 -39.5 -104t-103.5 -36h-135v275h124q32 0 60 -8.5t49 -25t33 -42t12 -59.5z" />
    <glyph glyph-name="S" unicode="S" horiz-adv-x="498" 
d="M458 185q0 85 -58 142q-21 21 -55 41.5t-81 41.5q-75 34 -100 54q-44 38 -44 89q0 57 42 92q39 33 98 33q56 0 91 -22q28 -16 48 -49l39 17q-52 94 -178 94q-76 0 -128 -46q-53 -45 -53 -119t52 -119q31 -28 116 -66q45 -20 74 -36t43 -29q53 -47 53 -118q0 -75 -45 -114
q-44 -38 -121 -38q-135 0 -170 128l-41 -14q47 -155 211 -155q53 0 92 14q115 43 115 179z" />
    <glyph glyph-name="T" unicode="T" horiz-adv-x="441" 
d="M402 673v41h-357v-41h158v-673h41v673h158z" />
    <glyph glyph-name="U" unicode="U" horiz-adv-x="555" 
d="M490 178v536h-41v-536q0 -67 -51 -107q-47 -37 -116 -37q-70 0 -116 36q-50 39 -50 108v536h-40v-536q0 -87 61 -138q58 -47 145 -47q90 0 145 46q63 52 63 139z" />
    <glyph glyph-name="V" unicode="V" horiz-adv-x="526" 
d="M497 714h-43l-188 -590l-187 590h-42l229 -726z" />
    <glyph glyph-name="W" unicode="W" horiz-adv-x="876" 
d="M851 714h-42l-187 -584l-180 597l-181 -597l-187 584h-40l229 -724l179 599l178 -599z" />
    <glyph glyph-name="X" unicode="X" horiz-adv-x="530" 
d="M504 0l-210 366l198 348h-47l-177 -309l-176 309h-47l198 -345l-210 -369h46l188 331l190 -331h47z" />
    <glyph glyph-name="Y" unicode="Y" horiz-adv-x="511" 
d="M481 714h-47l-178 -309l-176 309h-47l203 -357v-357h41v357z" />
    <glyph glyph-name="Z" unicode="Z" horiz-adv-x="554" 
d="M522 714h-459v-42h385l-409 -672h481v41h-408z" />
    <glyph glyph-name="bracketleft" unicode="[" horiz-adv-x="214" 
d="M170 -46v34h-70v732h67v35h-108v-801h111z" />
    <glyph glyph-name="backslash" unicode="\" horiz-adv-x="281" 
d="M267 0l-204 714h-40l205 -714h39z" />
    <glyph glyph-name="bracketright" unicode="]" horiz-adv-x="214" 
d="M172 -46v801h-108v-35h68v-732h-71v-34h111z" />
    <glyph glyph-name="asciicircum" unicode="^" horiz-adv-x="352" 
d="M316 377l-121 281h-33l-121 -281h26l112 206l110 -206h27z" />
    <glyph glyph-name="underscore" unicode="_" horiz-adv-x="357" 
d="M368 -212v36h-368v-36h368z" />
    <glyph glyph-name="grave" unicode="`" horiz-adv-x="332" 
d="M247 492l-134 134l-22 -24l131 -133z" />
    <glyph glyph-name="a" unicode="a" horiz-adv-x="510" 
d="M454 0v413h-41v-72q-66 78 -165 78q-90 0 -152 -62q-61 -61 -61 -151t62 -152q61 -61 151 -61q100 0 165 78v-71h41zM421 206q0 -72 -51 -123q-50 -50 -122 -50q-71 0 -122 51t-51 122q0 72 51 123q50 50 122 50q71 0 122 -51t51 -122z" />
    <glyph glyph-name="b" unicode="b" horiz-adv-x="517" 
d="M478 206q0 90 -62 152q-61 61 -151 61q-104 0 -169 -83v404h-41v-740h41v76q66 -83 169 -83q90 0 152 62q61 61 61 151zM438 206q0 -72 -51 -123q-50 -50 -122 -50q-71 0 -122 51t-51 122q0 72 51 123q50 50 122 50q71 0 122 -51t51 -122z" />
    <glyph glyph-name="c" unicode="c" horiz-adv-x="438" 
d="M387 29v51q-54 -48 -126 -48q-76 0 -125 49t-49 125q0 77 49 126q48 48 125 48q34 0 72 -13l28 -15l26 -17v49q-47 36 -126 36q-92 0 -153 -61t-61 -153t61 -153t153 -61q70 0 126 37z" />
    <glyph glyph-name="d" unicode="d" horiz-adv-x="521" 
d="M465 0v740h-41v-402q-69 81 -168 81q-90 0 -152 -62q-61 -61 -61 -151t62 -152q61 -61 151 -61q102 0 168 81v-74h41zM429 206q0 -72 -51 -123q-50 -50 -122 -50q-71 0 -122 51t-51 122q0 72 51 123q50 50 122 50q71 0 122 -51t51 -122z" />
    <glyph glyph-name="e" unicode="e" horiz-adv-x="490" 
d="M461 215q0 91 -61 148q-60 57 -152 57q-93 0 -154 -61q-60 -60 -60 -153q0 -92 61 -153q60 -61 153 -61q39 0 70 10q81 26 120 100l-37 17q-34 -55 -77 -73q-34 -14 -76 -14q-82 0 -129 50q-45 49 -45 133h387zM415 254h-335q40 126 168 126q61 0 108 -34q49 -35 59 -92z
" />
    <glyph glyph-name="f" unicode="f" horiz-adv-x="271" 
d="M250 693v41q-15 7 -27 7q-6 2 -28 2q-96 0 -96 -95v-235h-56v-41h56v-372h41v372h98v41h-98v223q0 66 56 66l27 -3z" />
    <glyph glyph-name="g" unicode="g" horiz-adv-x="510" 
d="M454 9v404h-41v-72q-66 78 -165 78q-90 0 -152 -62q-61 -61 -61 -151t62 -152q61 -61 151 -61q100 0 165 78v-61q0 -77 -43 -120q-42 -43 -119 -43q-57 0 -98 19q-52 24 -63 73h-41q33 -133 202 -133q91 0 147 56t56 147zM421 206q0 -72 -51 -123q-50 -50 -122 -50
q-71 0 -122 51t-51 122q0 72 51 123q50 50 122 50q71 0 122 -51t51 -122z" />
    <glyph glyph-name="h" unicode="h" horiz-adv-x="456" 
d="M401 -1v253q0 167 -163 167q-86 0 -123 -61v382h-41v-740h41v269q0 50 37 80q36 30 86 30q122 0 122 -131v-249h41z" />
    <glyph glyph-name="i" unicode="i" horiz-adv-x="184" 
d="M127 520q-8 33 -33 33q-33 -6 -33 -33q1 -15 10 -24q12 -9 23 -9q33 0 33 33zM114 0v413h-41v-413h41z" />
    <glyph glyph-name="j" unicode="j" horiz-adv-x="185" 
d="M127 520q-8 33 -33 33q-33 -6 -33 -33q1 -15 10 -24q12 -9 23 -9q33 0 33 33zM115 -180v593h-41v-593h41z" />
    <glyph glyph-name="k" unicode="k" horiz-adv-x="417" 
d="M401 0l-243 243l187 186h-58l-179 -178v489h-41v-740h41v192l23 23l216 -215h54z" />
    <glyph glyph-name="l" unicode="l" horiz-adv-x="192" 
d="M117 0v740h-40v-740h40z" />
    <glyph glyph-name="m" unicode="m" horiz-adv-x="643" 
d="M577 0v285q0 63 -38 99q-38 35 -100 35q-81 0 -117 -65q-38 65 -118 65q-67 0 -97 -47v41h-41v-413h41v285q0 43 28 68q28 26 69 26q40 0 69 -27q28 -25 28 -67v-285h41v285q0 94 97 94q47 0 72 -28t25 -66v-285h41z" />
    <glyph glyph-name="n" unicode="n" horiz-adv-x="451" 
d="M385 0v251q0 79 -41 123t-118 44q-91 0 -119 -55v50h-41v-413h41v251q0 59 31 93q30 34 88 34q118 0 118 -131v-247h41z" />
    <glyph glyph-name="o" unicode="o" horiz-adv-x="498" 
d="M461 206q0 90 -62 152t-151 62q-90 0 -151 -63q-62 -62 -62 -151q0 -90 62 -152q61 -61 151 -61t152 62q61 61 61 151zM421 206q0 -72 -51 -123q-50 -50 -122 -50q-71 0 -122 51t-51 122q0 70 52 122q51 52 121 52q73 0 123 -51q50 -50 50 -123z" />
    <glyph glyph-name="p" unicode="p" horiz-adv-x="513" 
d="M488 206q0 90 -62 152q-61 61 -151 61q-106 0 -170 -84v78h-41v-607h41v271q67 -84 170 -84q90 0 152 62q61 61 61 151zM448 206q0 -72 -51 -123q-50 -50 -122 -50q-71 0 -122 51t-51 122q0 72 51 123q50 50 122 50q71 0 122 -51t51 -122z" />
    <glyph glyph-name="q" unicode="q" horiz-adv-x="502" 
d="M452 -194v607h-41v-75q-68 81 -168 81q-90 0 -152 -62q-61 -61 -61 -151t62 -152q61 -61 151 -61q102 0 168 81v-268h41zM416 206q0 -72 -51 -123q-50 -50 -122 -50q-71 0 -122 51t-51 122q0 72 51 123q50 50 122 50q71 0 122 -51t51 -122z" />
    <glyph glyph-name="r" unicode="r" horiz-adv-x="310" 
d="M283 386q-25 18 -45 25t-51 7q-25 0 -46 -19t-34 -42v56h-41v-413h41v272q0 16 6.5 35t17.5 34.5t26 26t32 10.5q20 0 38 -7t34 -19z" />
    <glyph glyph-name="s" unicode="s" horiz-adv-x="331" 
d="M308 113q0 56 -43 89q-11 8 -33 18.5t-56 22.5q-39 13 -57 27q-22 18 -22 46q0 63 72 63q53 0 87 -34l30 26q-48 48 -117 48q-50 0 -81 -31q-32 -30 -32 -72q0 -49 32 -75q22 -18 72 -36q27 -10 45.5 -17.5t28.5 -13.5q33 -26 33 -61q0 -80 -94 -80q-43 0 -68 19
q-24 17 -41 48l-35 -21q48 -87 144 -87q56 0 96 34q39 33 39 87z" />
    <glyph glyph-name="t" unicode="t" horiz-adv-x="250" 
d="M224 372v41h-96v181h-41v-181h-56v-41h56v-372h41v372h96z" />
    <glyph glyph-name="u" unicode="u" horiz-adv-x="429" 
d="M369 155v258h-40v-258q0 -123 -115 -123q-59 0 -86 32q-26 32 -26 91v258h-41v-258q0 -77 40 -120t113 -43q74 0 115 44q40 43 40 119z" />
    <glyph glyph-name="v" unicode="v" horiz-adv-x="435" 
d="M418 413h-46l-151 -329l-150 329h-44l195 -431z" />
    <glyph glyph-name="w" unicode="w" horiz-adv-x="684" 
d="M661 413h-46l-138 -319l-132 332l-133 -333l-139 320h-44l185 -431l131 330l129 -330z" />
    <glyph glyph-name="x" unicode="x" horiz-adv-x="361" 
d="M347 0l-140 209l137 204h-48l-114 -171l-115 171h-48l138 -205l-141 -208h49l117 173l117 -173h48z" />
    <glyph glyph-name="y" unicode="y" horiz-adv-x="445" 
d="M423 413h-45l-152 -326l-154 326h-44l174 -375l-107 -232h46z" />
    <glyph glyph-name="z" unicode="z" horiz-adv-x="457" 
d="M424 413h-361v-39h278l-295 -374h373v41h-288z" />
    <glyph glyph-name="braceleft" unicode="{" horiz-adv-x="193" 
d="M178 -51v37q-50 0 -69 16q-19 15 -19 64v199q0 23 -13 48q-12 26 -28 42q41 35 41 90v183q0 46 20 66q19 19 67 19v37q-68 0 -96 -28q-28 -27 -28 -94v-183q0 -54 -45 -90q23 -23 30 -37q15 -29 15 -53v-201q0 -67 29 -91q28 -24 96 -24z" />
    <glyph glyph-name="bar" unicode="|" horiz-adv-x="133" 
d="M89 -46v801h-35v-801h35z" />
    <glyph glyph-name="braceright" unicode="}" horiz-adv-x="193" 
d="M185 355q-23 23 -30 35q-15 27 -15 55v183q0 64 -29 93t-95 29v-37q48 0 67 -19q20 -20 20 -66v-183q0 -30 11 -52t30 -38q-41 -44 -41 -90v-199q0 -49 -19 -65q-20 -15 -69 -15v-37q68 0 97 24q28 24 28 91v201q0 26 16 54q12 22 29 36z" />
    <glyph glyph-name="asciitilde" unicode="~" horiz-adv-x="429" 
d="M402 359l-32 27q-35 -36 -77 -36l-18 2l-17 5l-34 16l-40 18q-18 6 -37 6q-66 0 -117 -51l28 -29l19 17l17 11q25 12 53 12q21 0 42 -11l25 -13l41 -19q12 -5 40 -5q60 0 107 50z" />
    <glyph glyph-name="exclamdown" unicode="&#xa1;" horiz-adv-x="204" 
d="M139 608q-3 17 -11 25q-11 11 -25 11q-36 -6 -36 -36q0 -36 36 -36q36 6 36 36zM124 -74v566h-40v-566h40z" />
    <glyph glyph-name="cent" unicode="&#xa2;" horiz-adv-x="423" 
d="M371 469v49q-22 20 -52 29q-27 11 -60 11v49h-42v-50q-82 -10 -131 -67q-48 -56 -48 -139q0 -76 45 -131q55 -69 134 -69v-59h42v58l32 3l30 7q30 12 48 24v46q-59 -41 -110 -41v326q27 0 60 -14l26 -15zM217 190q-62 10 -99 54q-36 43 -36 107q0 63 37 109q38 45 98 54
v-324z" />
    <glyph glyph-name="sterling" unicode="&#xa3;" horiz-adv-x="474" 
d="M448 50l-27 26q-42 -42 -89 -42q-21 0 -39 6l-38 17q-14 9 -36 18l-17 7l-15 1q31 31 52 73q20 43 20 88h112v43h-114q-10 37 -34 73l-52 78q-39 58 -47 96l-3 32q0 113 131 113q57 0 90 -23q41 -27 41 -80h40q0 71 -51 109q-46 34 -120 34q-75 0 -124 -38
q-51 -41 -51 -115q0 -35 17 -77l40 -71l37 -51q37 -50 43 -80h-104v-43h107q0 -81 -82 -163q-24 0 -53 -17q-28 -16 -43 -37l26 -28q25 24 41 31q31 13 57 12l23 -2l23 -6q13 -3 28 -12q47 -28 95 -28q38 0 70 18q14 10 25 19t21 19z" />
    <glyph glyph-name="currency" unicode="&#xa4;" horiz-adv-x="702" 
d="M665 273v40h-562q-1 11 -1.5 22t-0.5 22q0 10 0.5 19.5t1.5 18.5h562v41h-556q18 91 84 156q90 92 234 92q83 0 159 -31q50 -21 92 -56v51q-41 32 -85 49q-74 27 -166 27q-162 0 -265 -103q-76 -76 -95 -185h-66v-41h60q-1 -9 -1 -19v-19q0 -11 0.5 -22t1.5 -22h-61v-40
h67q19 -105 95 -181q102 -102 264 -102q14 0 27 0.5t24 1.5q96 9 152 50l48 35v47q-58 -42 -96 -61q-66 -32 -155 -32q-143 0 -235 92q-62 62 -82 150h555z" />
    <glyph glyph-name="yen" unicode="&#xa5;" horiz-adv-x="514" 
d="M481 714h-47l-178 -310l-176 310h-47l200 -352h-98v-41h101v-45h-101v-41h101v-235h41v235h102v41h-102v45h102v41h-99z" />
    <glyph glyph-name="brokenbar" unicode="&#xa6;" horiz-adv-x="133" 
d="M89 436v319h-35v-319h35zM89 0v327h-35v-327h35z" />
    <glyph glyph-name="section" unicode="&#xa7;" horiz-adv-x="380" 
d="M346 348q0 135 -154 160q-92 15 -92 97q0 36 25 61q25 24 61 24q62 0 98 -66l30 20q-42 84 -128 84q-54 0 -92 -35q-36 -35 -36 -90q0 -74 71 -115q-43 -23 -60 -44q-32 -38 -32 -99q0 -58 41 -101q40 -41 99 -49q106 -13 106 -115q0 -42 -28 -66q-27 -24 -69 -24
q-44 0 -66 22q-23 23 -36 55l-37 -17q18 -47 53 -73t86 -26q61 0 102 35q40 34 40 94q0 92 -68 130q86 50 86 138zM301 345q0 -47 -31 -74q-31 -26 -78 -26q-45 0 -77 29t-32 76q0 46 28 75q28 30 73 30q117 0 117 -110z" />
    <glyph glyph-name="dieresis" unicode="&#xa8;" horiz-adv-x="429" 
d="M321 520q-8 33 -33 33q-33 -6 -33 -33q1 -15 10 -24q12 -9 23 -9q33 0 33 33zM184 520q-8 33 -33 33q-33 -6 -33 -33q1 -15 10 -24q12 -9 23 -9q33 0 33 33z" />
    <glyph glyph-name="copyright" unicode="&#xa9;" horiz-adv-x="588" 
d="M560 389q0 110 -77 187q-78 76 -186 76q-110 0 -187 -77q-76 -76 -76 -186t77 -187q76 -76 186 -76t187 77q76 78 76 186zM541 390q0 -102 -71 -173q-70 -70 -172 -70t-173 71q-70 70 -70 172t71 173q70 70 172 70t173 -71q70 -70 70 -172zM392 308v24q-35 -39 -95 -39
q-54 0 -82 30q-28 29 -28 71q0 46 32 73q31 27 78 27l29 -3q13 -1 28 -9l20 -10l18 -12v24l-20 12l-17 8q-20 10 -58 10q-56 0 -93 -33q-37 -31 -37 -87q0 -53 38 -88q37 -33 92 -33q60 0 95 35z" />
    <glyph glyph-name="ordfeminine" unicode="&#xaa;" horiz-adv-x="373" 
d="M309 424v248h-25v-43q-38 47 -99 47q-54 0 -91 -37q-36 -38 -36 -91q0 -54 37 -91q36 -37 90 -37q63 0 99 47v-43h25zM334 336v29h-284v-29h284zM289 548q0 -42 -31 -73t-73 -31t-73 31q-30 31 -30 73t31 73q30 31 72 31t73 -31t31 -73z" />
    <glyph glyph-name="guillemotleft" unicode="&#xab;" horiz-adv-x="439" 
d="M392 423l-21 21l-188 -189l184 -185l21 21l-165 164zM247 423l-20 21l-189 -189l184 -185l21 21l-164 164z" />
    <glyph glyph-name="logicalnot" unicode="&#xac;" 
d="M205 419v322h-60l-12 -19h54v-303h18zM318 354v26h-254v-26h254zM288 82q0 62 -62 85q22 4 37 29q13 20 13 45q0 36 -23 59t-59 23q-37 0 -60 -23t-23 -59q0 -23 14 -46q13 -21 35 -28q-60 -23 -60 -85q0 -40 25 -65q26 -26 69 -26q42 0 68 25q26 26 26 66zM258 241
q0 -27 -19 -46q-18 -18 -45 -18t-46 19q-19 18 -19 45t19 46q19 18 46 18t46 -19q18 -18 18 -45zM270 82q0 -31 -22 -52q-23 -21 -54 -21q-32 0 -54 21q-22 19 -22 52q0 30 23 53q22 22 53 22q32 0 54 -22t22 -53z" />
    <glyph glyph-name="registered" unicode="&#xae;" horiz-adv-x="399" 
d="M357 539q0 66 -46 112t-112 46t-112 -46t-46 -112t46 -112t112 -46t112 46t46 112zM342 539q0 -57 -43 -100t-100 -43t-100 43t-43 100t43 100t100 43t100 -43t43 -100zM265 452l-59 84h8q51 0 51 49q0 22 -15 36q-13 13 -36 13h-70v-182h14v84h31l58 -84h18zM251 585
q0 -35 -36 -35h-57v70h57q36 0 36 -35z" />
    <glyph glyph-name="macron" unicode="&#xaf;" horiz-adv-x="393" 
d="M342 474v36h-285v-36h285z" />
    <glyph glyph-name="degree" unicode="&#xb0;" horiz-adv-x="212" 
d="M189 615q0 33 -25 58t-58 25t-58 -25t-25 -58t25 -58t58 -25t58 25t25 58zM168 616q0 -24 -19 -43t-43 -19t-43 19t-19 43t19 43t43 19t43 -19t19 -43z" />
    <glyph glyph-name="plusminus" unicode="&#xb1;" horiz-adv-x="388" 
d="M317 323v41h-102v102h-46v-102h-102v-41h102v-102h46v102h102zM324 142v41h-257v-41h257z" />
    <glyph glyph-name="twosuperior" unicode="&#xb2;" 
d="M297 656q0 38 -28 62q-29 24 -66 24q-34 0 -62 -22q-27 -20 -32 -54h20q19 58 74 58q29 0 52 -20t23 -48q0 -27 -19 -56l-157 -182h194v18h-154l93 105q35 40 43 52q19 32 19 63z" />
    <glyph glyph-name="threesuperior" unicode="&#xb3;" 
d="M291 507q0 68 -63 86q60 16 60 74q0 38 -25 60t-61 22q-35 0 -59 -21q-24 -19 -27 -55h21q9 57 65 57q28 0 46 -18q18 -17 18 -45l-4 -25l-12 -19q-17 -17 -46 -17h-19v-26h19l21 -4q9 -3 20 -12q26 -20 26 -57q0 -30 -21 -51q-22 -20 -51 -20q-25 0 -44 17
q-18 17 -24 35h-20q19 -70 88 -70q41 0 66 25q26 24 26 64z" />
    <glyph glyph-name="acute" unicode="&#xb4;" horiz-adv-x="408" 
d="M313 602l-24 24l-133 -133l24 -24z" />
    <glyph glyph-name="mu" unicode="&#xb5;" horiz-adv-x="785" 
d="M494 530q0 85 -61 137q-61 53 -146 53q-99 0 -159 -66q-45 -51 -52 -103h45q11 46 39 77q46 52 127 52q66 0 116 -43q50 -44 50 -107q0 -65 -42 -125l-350 -405h432v41h-342l205 232q28 32 46 53.5t27 32.5q65 84 65 171zM339 445q0 33 -25 58t-58 25t-58 -25t-25 -58
t25 -58t58 -25t58 25t25 58zM318 446q0 -24 -19 -43t-43 -19t-43 19t-19 43t19 43t43 19t43 -19t19 -43zM699 445q0 33 -25 58t-58 25t-58 -25t-25 -58t25 -58t58 -25t58 25t25 58zM678 446q0 -24 -19 -43t-43 -19t-43 19t-19 43t19 43t43 19t43 -19t19 -43zM244 429
q0 -9 6.5 -15.5t15.5 -6.5t15.5 6.5t6.5 15.5t-6.5 15.5t-15.5 6.5t-15.5 -6.5t-6.5 -15.5zM605 426q0 -9 6.5 -15.5t15.5 -6.5t15.5 6.5t6.5 15.5t-6.5 15.5t-15.5 6.5t-15.5 -6.5t-6.5 -15.5zM586 -129l-18 22q-37 -37 -85 -37q-52 0 -91 39l-21 -24q41 -44 108 -44
q69 0 107 44z" />
    <glyph glyph-name="paragraph" unicode="&#xb6;" horiz-adv-x="505" 
d="M446 -61v775h-41v-775h41zM351 -61v775h-108q-83 0 -137 -48q-57 -51 -57 -131q0 -82 55 -130t139 -48h67v-418h41z" />
    <glyph glyph-name="periodcentered" unicode="&#xb7;" horiz-adv-x="276" 
d="M135 324q-8 33 -33 33q-33 -6 -33 -33q1 -15 10 -24q12 -9 23 -9q33 0 33 33z" />
    <glyph glyph-name="periodcentered" unicode="&#x2219;" horiz-adv-x="276" 
d="M135 324q-8 33 -33 33q-33 -6 -33 -33q1 -15 10 -24q12 -9 23 -9q33 0 33 33z" />
    <glyph glyph-name="cedilla" unicode="&#xb8;" horiz-adv-x="260" 
d="M195 -94q0 41 -38 53l14 41h-45l-16 -49q36 -14 36 -35q0 -24 -28 -24l-24 7q-7 4 -12.5 7.5t-9.5 7.5v-40q28 -25 65 -25q26 0 42 16t16 41z" />
    <glyph glyph-name="onesuperior" unicode="&#xb9;" 
d="M219 419v322h-60l-12 -19h54v-303h18z" />
    <glyph glyph-name="ordmasculine" unicode="&#xba;" horiz-adv-x="373" 
d="M315 552q0 54 -37 91t-91 37t-91 -37t-37 -91t37 -91t91 -37t91 37t37 91zM328 336v29h-282v-29h282zM291 552q0 -42 -31 -73t-73 -31t-73 31t-31 73t31 73t73 31t73 -31t31 -73z" />
    <glyph glyph-name="guillemotright" unicode="&#xbb;" horiz-adv-x="439" 
d="M413 255l-189 189l-20 -21l168 -168l-164 -164l21 -21zM263 255l-189 189l-20 -21l168 -168l-164 -164l21 -21z" />
    <glyph glyph-name="onequarter" unicode="&#xbc;" 
d="M219 419v322h-60l-12 -19h54v-303h18zM333 354v26h-254v-26h254zM288 60v18h-28v247l-184 -265h165v-61h19v61h28zM241 78h-132l132 187v-187z" />
    <glyph glyph-name="onehalf" unicode="&#xbd;" 
d="M225 419v322h-60l-12 -19h54v-303h18zM335 354v26h-254v-26h254zM301 238q0 38 -28 62q-29 24 -66 24q-34 0 -62 -22q-27 -20 -32 -54h20q19 58 74 58q29 0 52 -20t23 -48q0 -27 -19 -56l-157 -182h194v18h-154l93 105q35 40 43 52q19 32 19 63z" />
    <glyph glyph-name="threequarters" unicode="&#xbe;" 
d="M291 507q0 68 -63 86q60 16 60 74q0 38 -25 60t-61 22q-35 0 -59 -21q-24 -19 -27 -55h21q9 57 65 57q28 0 46 -18q18 -17 18 -45l-4 -25l-12 -19q-17 -17 -46 -17h-19v-26h19l21 -4q9 -3 20 -12q26 -20 26 -57q0 -30 -21 -51q-22 -20 -51 -20q-25 0 -44 17
q-18 17 -24 35h-20q19 -70 88 -70q41 0 66 25q26 24 26 64zM327 354v26h-255v-26h255zM292 60v18h-28v247l-184 -265h165v-61h19v61h28zM245 78h-132l132 187v-187z" />
    <glyph glyph-name="questiondown" unicode="&#xbf;" horiz-adv-x="469" 
d="M280 612q-6 35 -35 35q-35 -6 -35 -35q6 -35 35 -35q35 6 35 35zM423 53l-38 17q-14 -24 -28 -42t-28 -30q-46 -38 -106 -38q-58 0 -98 26q-47 30 -47 86q0 43 35 84q8 10 27 25t48 37l85 63q70 52 70 117q0 43 -30 69q-30 25 -73 25q-57 0 -87 -30l24 -33q13 13 27 16
q12 5 36 5q25 0 42 -14t17 -38q0 -52 -50 -88l-84 -61q-36 -26 -57 -42t-26 -23q-45 -51 -45 -112q0 -78 56 -117q48 -35 130 -35q145 0 200 133z" />
    <glyph glyph-name="Agrave" unicode="&#xc0;" horiz-adv-x="633" 
d="M343 772l-121 121l-20 -22l118 -119zM602 0l-286 737l-285 -737h40l83 214h325l82 -214h41zM462 255h-292l146 378z" />
    <glyph glyph-name="Aacute" unicode="&#xc1;" horiz-adv-x="633" 
d="M426 865l-20 20l-111 -112l19 -19zM602 0l-286 737l-285 -737h40l83 214h325l82 -214h41zM462 255h-292l146 378z" />
    <glyph glyph-name="Acircumflex" unicode="&#xc2;" horiz-adv-x="633" 
d="M439 757l-121 121l-121 -121l21 -21l100 99l100 -99zM602 0l-286 737l-285 -737h40l83 214h325l82 -214h41zM462 255h-292l146 378z" />
    <glyph glyph-name="Atilde" unicode="&#xc3;" horiz-adv-x="628" 
d="M476 800l-29 22q-21 -21 -29 -24l-12 -4h-23l-35 4l-29 12q-5 3 -9 5l-8 4q-27 10 -52 10q-67 0 -95 -51l28 -22q25 33 62 33q22 0 36 -6l29 -12q30 -18 77 -18q31 0 54 14l16 13zM602 0l-286 737l-285 -737h40l83 214h325l82 -214h41zM462 255h-292l146 378z" />
    <glyph glyph-name="Adieresis" unicode="&#xc4;" horiz-adv-x="628" 
d="M414 796q-8 33 -33 33q-33 -6 -33 -33q1 -15 10 -24q12 -9 23 -9q33 0 33 33zM277 796q-8 33 -33 33q-33 -6 -33 -33q1 -15 10 -24q12 -9 23 -9q33 0 33 33zM602 0l-286 737l-285 -737h40l83 214h325l82 -214h41zM462 255h-292l146 378z" />
    <glyph glyph-name="Aring" unicode="&#xc5;" horiz-adv-x="633" 
d="M384 813q0 28 -20 48t-48 20t-48 -20t-20 -48t20 -48t48 -20t48 20t20 48zM602 0l-286 737l-285 -737h40l83 214h325l82 -214h41zM366 814q0 -19 -16 -35q-15 -16 -34 -16q-23 0 -36 15q-14 14 -14 36q0 21 15 36q14 14 35 14q20 0 35 -15t15 -35zM462 255h-292l146 378z
" />
    <glyph glyph-name="AE" unicode="&#xc6;" horiz-adv-x="740" 
d="M686 0v41h-303v331h303v41h-302v260h302v41h-339l-318 -714h40l146 327h127v-327h344zM342 367h-108l108 243v-243z" />
    <glyph glyph-name="Ccedilla" unicode="&#xc7;" horiz-adv-x="702" 
d="M668 77v47q-58 -42 -96 -61q-66 -32 -155 -32q-143 0 -235 92q-91 91 -91 234t92 235t234 92q83 0 159 -31q50 -21 92 -56v51q-41 32 -85 49q-74 27 -166 27q-162 0 -265 -103q-102 -102 -102 -264q0 -157 96 -257q107 -110 243 -110l-16 -37q13 -3 23 -15t10 -23
q0 -24 -28 -24q-24 0 -40 19l-16 -33q28 -28 68 -28q61 0 61 60q0 31 -31 53l11 28q89 0 155 31l33 21z" />
    <glyph glyph-name="Egrave" unicode="&#xc8;" horiz-adv-x="473" 
d="M265 772l-120 121l-21 -22l119 -119zM414 0v41h-302v328h302v44h-302v260h302v41h-343v-714h343z" />
    <glyph glyph-name="Eacute" unicode="&#xc9;" horiz-adv-x="473" 
d="M354 865l-21 22l-112 -116l21 -17zM414 0v41h-302v328h302v44h-302v260h302v41h-343v-714h343z" />
    <glyph glyph-name="Ecircumflex" unicode="&#xca;" horiz-adv-x="473" 
d="M367 777l-120 121l-121 -121l21 -21l100 99l100 -99zM414 0v41h-302v328h302v44h-302v260h302v41h-343v-714h343z" />
    <glyph glyph-name="Edieresis" unicode="&#xcb;" horiz-adv-x="473" 
d="M346 796q-8 33 -33 33q-33 -6 -33 -33q1 -15 10 -24q12 -9 23 -9q33 0 33 33zM209 796q-8 33 -33 33q-33 -6 -33 -33q1 -15 10 -24q12 -9 23 -9q33 0 33 33zM414 0v41h-302v328h302v44h-302v260h302v41h-343v-714h343z" />
    <glyph glyph-name="Igrave" unicode="&#xcc;" horiz-adv-x="192" 
d="M129 772l-120 121l-21 -22l119 -119zM117 0v714h-40v-714h40z" />
    <glyph glyph-name="Iacute" unicode="&#xcd;" horiz-adv-x="192" 
d="M201 865l-19 20l-112 -112l20 -19zM117 0v714h-40v-714h40z" />
    <glyph glyph-name="Icircumflex" unicode="&#xce;" horiz-adv-x="192" 
d="M216 757l-120 121l-122 -121l22 -21l100 99l100 -99zM117 0v714h-40v-714h40z" />
    <glyph glyph-name="Idieresis" unicode="&#xcf;" horiz-adv-x="192" 
d="M197 796q-8 33 -33 33q-33 -6 -33 -33q1 -15 10 -24q12 -9 23 -9q33 0 33 33zM60 796q-8 33 -33 33q-33 -6 -33 -33q1 -15 10 -24q12 -9 23 -9q33 0 33 33zM117 0v714h-40v-714h40z" />
    <glyph glyph-name="Eth" unicode="&#xd0;" horiz-adv-x="688" 
d="M633 358q0 147 -85 248q-90 108 -234 108h-238v-334h-44v-41h44v-339h238q145 0 235 108q84 102 84 250zM592 358q0 -147 -87 -235q-81 -82 -191 -82h-198v298h127v41h-127v294h198q127 0 205 -96q73 -89 73 -220z" />
    <glyph glyph-name="Ntilde" unicode="&#xd1;" horiz-adv-x="715" 
d="M521 800l-29 22q-21 -21 -29 -24l-12 -4h-23l-35 4l-29 12q-5 3 -9 5l-8 4q-27 10 -52 10q-67 0 -95 -51l28 -22q25 33 62 33q22 0 36 -6l29 -12q30 -18 77 -18q31 0 54 14l16 13zM651 -12v726h-41v-620l-533 625v-719h40v606z" />
    <glyph glyph-name="Ograve" unicode="&#xd2;" horiz-adv-x="822" 
d="M432 772l-121 121l-20 -22l118 -119zM785 357q0 162 -103 265q-104 102 -265 102q-162 0 -265 -103q-102 -102 -102 -264t103 -265q102 -102 264 -102t265 103q103 102 103 264zM744 357q0 -145 -91 -236q-92 -90 -236 -90q-143 0 -235 92q-91 91 -91 234t92 235t234 92
q144 0 236 -92q91 -91 91 -235z" />
    <glyph glyph-name="Oacute" unicode="&#xd3;" horiz-adv-x="822" 
d="M511 865l-19 20l-111 -112l19 -19zM785 357q0 162 -103 265q-104 102 -265 102q-162 0 -265 -103q-102 -102 -102 -264t103 -265q102 -102 264 -102t265 103q103 102 103 264zM744 357q0 -145 -91 -236q-92 -90 -236 -90q-143 0 -235 92q-91 91 -91 234t92 235t234 92
q144 0 236 -92q91 -91 91 -235z" />
    <glyph glyph-name="Ocircumflex" unicode="&#xd4;" horiz-adv-x="822" 
d="M535 782l-121 121l-121 -121l21 -21l100 99l100 -99zM785 357q0 162 -103 265q-104 102 -265 102q-162 0 -265 -103q-102 -102 -102 -264t103 -265q102 -102 264 -102t265 103q103 102 103 264zM744 357q0 -145 -91 -236q-92 -90 -236 -90q-143 0 -235 92q-91 91 -91 234
t92 235t234 92q144 0 236 -92q91 -91 91 -235z" />
    <glyph glyph-name="Otilde" unicode="&#xd5;" horiz-adv-x="822" 
d="M566 812l-29 22q-21 -21 -29 -24l-12 -4h-23l-35 4l-29 12q-5 3 -9 5l-8 4q-27 10 -52 10q-67 0 -95 -51l28 -22q25 33 62 33q22 0 36 -6l29 -12q30 -18 77 -18q31 0 54 14l16 13zM785 357q0 162 -103 265q-104 102 -265 102q-162 0 -265 -103q-102 -102 -102 -264
t103 -265q102 -102 264 -102t265 103q103 102 103 264zM744 357q0 -145 -91 -236q-92 -90 -236 -90q-143 0 -235 92q-91 91 -91 234t92 235t234 92q144 0 236 -92q91 -91 91 -235z" />
    <glyph glyph-name="Odieresis" unicode="&#xd6;" horiz-adv-x="822" 
d="M515 796q-8 33 -33 33q-33 -6 -33 -33q1 -15 10 -24q12 -9 23 -9q33 0 33 33zM378 796q-8 33 -33 33q-33 -6 -33 -33q1 -15 10 -24q12 -9 23 -9q33 0 33 33zM785 357q0 162 -103 265q-104 102 -265 102q-162 0 -265 -103q-102 -102 -102 -264t103 -265q102 -102 264 -102
t265 103q103 102 103 264zM744 357q0 -145 -91 -236q-92 -90 -236 -90q-143 0 -235 92q-91 91 -91 234t92 235t234 92q144 0 236 -92q91 -91 91 -235z" />
    <glyph glyph-name="multiply" unicode="&#xd7;" horiz-adv-x="942" 
d="M649 347q-3 -5 -5.5 -9t-5.5 -8v17q2 0 4 3t4 5zM719 458l-11 -14l10 19zM726 373q2 10 4 15l-2 -15h-2zM869 348q-21 0 -50 8t-50 13q1 4 2 7.5t1 7.5q3 -1 8 -1t7 -2l2 1q13 -3 28 -3l3 3q0 4 -12 5t-15 2l1 4h15q25 0 49.5 -3t47.5 -14q-7 -10 -23 -15l-2 -3
q1 -8 -1.5 -9t-10.5 -1zM728 367h-2h2zM802 354l-1 -2q0 -2 7 -4t15.5 -4.5t17 -4t11.5 -2.5q-23 4 -44.5 8.5t-42.5 10.5l2 7q9 -2 17.5 -4.5t17.5 -4.5zM848 344q11 -2 14 -2q4 0 15 -5q-8 2 -15 3.5t-14 3.5zM775 399q5 18 8 36t7 37q-2 -19 -3.5 -37t-2.5 -36h-9z
M733 359l21 -6q-3 -7 -11.5 -19t-13.5 -20q2 11 2.5 22.5t1.5 22.5zM734 367h12q4 0 12 -2l-2 -7q-6 2 -11.5 3.5t-10.5 3.5v2zM736 392q7 -1 13.5 -2t13.5 -2l3 -2q-1 -5 -5 -15q-7 2 -14 2h-13zM725 447v10l9 13q-2 -6 -4.5 -12t-4.5 -11zM684 406q1 0 1.5 -0.5t1.5 -0.5
t5.5 6t10 14t10.5 15t6 9q1 -5 1 -15q0 -3 -5.5 -14.5t-13 -25.5t-14.5 -26.5t-9 -16.5q2 14 3 27.5t3 27.5zM650 360q6 8 9 11q0 -6 -1.5 -8.5t-5.5 -8.5zM658 352v-14l-3 8zM642 366l1 -4l-2 -3zM259 522h-2q-2 1 -7 1l-6 6l2 1q3 -1 7 -3t6 -5zM279 518h1h-1zM57 245v69
q49 -2 97 -10t97 -15v-11q-98 -11 -194 -33zM251 381v-20q-15 1 -35 2t-39.5 4.5t-37 10.5t-26.5 21q2 2 7 2q34 0 66.5 -6t64.5 -14zM315 340q-5 5 -11 8.5t-12 5.5v16q17 -5 34 -9t34 -7q-8 -7 -21.5 -9.5t-23.5 -4.5zM272 287h-1h1zM251 330v-8q-7 2 -13 4t-13 4h26z
M307 339q-4 0 -7.5 -0.5t-7.5 -0.5v10q7 -3 15 -9zM323 299h-25q4 0 4 3q0 2 -4 3t-6 2v25q5 1 10 1t10 1q6 -8 8 -16.5t3 -18.5zM251 272v-44q-24 -5 -48 -7t-49 -2h-26q-18 0 -36 2.5t-35 5.5v11q48 12 96.5 20.5t97.5 13.5zM321 279q-3 -11 -11 -20t-18 -15v10q0 2 1 5.5
t2 5.5l-3 1v11q8 0 14.5 0.5t14.5 1.5zM323 293v-5q-2 0 -6.5 0.5t-10 1t-9.5 1t-5 0.5v2h31zM292 233v4q13 7 22.5 17.5t12.5 24.5q1 0 6 0.5l10 1t9 1t4 2.5t-4 3t-9 1h-9h-5v6q45 2 88 6q-31 -18 -62 -34t-63 -33zM256 432l1 -1zM215 436l13 -1zM292 436v1q2 -1 7 -1h-7z
M342 422q2 0 6 2h4q-2 -2 -2 -4zM325 416h1h2h-3zM249 446l1 -4h-5zM233 481q5 -6 8.5 -13t5.5 -15l-11 -10q-2 0 -7 0.5t-11 0.5t-10.5 -1t-4.5 -4l8 -2v-6q11 0 20.5 -2t19.5 -5v-37q-32 8 -64 14t-64 6q-4 0 -10 -1t-6 -6q0 -14 18.5 -22.5t43 -13t48.5 -6.5t34 -3v-19
q-3 0 -12.5 0.5t-19.5 0.5t-18 -1t-8 -4q2 -2 10 -4.5t17 -5t17.5 -4.5t13.5 -3v-14q-49 3 -97 10t-97 9v105q0 42 27.5 68t69.5 26q14 0 27.5 -3t25.5 -11q-2 -2 0 -4t5.5 -4t7 -3.5t5.5 -2.5q-3 0 -10.5 -0.5t-15.5 -1.5t-14.5 -2.5t-6.5 -3.5l3 -4h26t26 2zM266 517l2 -1
q-2 -2 -4 -2.5t-4 -1.5q-1 2 -2 2.5t-2 2.5q2 -1 5 -0.5t5 0.5zM276 503h-4h-6l-1 3q2 2 6.5 4t7.5 2q-1 -2 -2 -3.5t-1 -3.5v-2zM308 486q1 2 3 4l5 -5q-2 0 -4 0.5t-4 0.5zM275 497h-1h1zM242 537q-2 0 -6.5 0.5t-6.5 2.5l4 4zM136 755h18h-5h-4h-9zM363 411h-2l-1 2
l10 -2h-7zM292 142v40q10 -3 18 -8t16 -11q-13 -15 -34 -21zM260 25q1 -2 6 -2h8q-4 -1 -7.5 -1.5t-8.5 -0.5h-4q-7 0 -13 0.5t-12 1.5q6 2 11 2h20zM311 24v1q14 0 28 0.5t28 2.5q-14 -3 -28 -3t-28 -1zM307 31l-8 6q22 3 44 5t44 2v6l-108 -5l21 2l1 6l-33 8q14 8 29.5 11
t30.5 8v6q-39 9 -75 24l21 3l1 6l-29 9q23 2 46.5 8t39.5 25v4l-40 23v38q35 18 70 36.5t70 38.5l-1 6l-102 -7l-10 35q14 2 26 7t23 12l-1 5q-20 3 -38 7.5t-37 9.5v26l7 5l68 -8l3 2l15 -3l2 6l-7 2l21 2v6l-43 5l15 1l1 6q-21 6 -41 7.5t-40 9.5l7 29l6 5l60 -2l-40 7
l-11 12q14 15 34 20t40 5q41 0 69 -26t28 -68v-425h41v339l6 6l344 -345h57l-366 367l17 3l3 -17l14 15l-3 -13l5 -3l13 12l-2 -20l6 -2l12 18l-1 -40l5 -2l14 21l5 -18h6l6 19v-17h6q0 6 6 18.5t13.5 27.5t15.5 28.5t11 21.5l-1 -46l-13 -6l21 -7l-6 -60l6 -2l14 25l3 -8
l18 36q34 -9 68.5 -16t69.5 -12l-17 -15l25 -9l-43 -9l-1 -6l27 -12l2 6l-18 7l44 11v6l-28 9l17 11l29 -3v6q-15 1 -31 4t-28 14q5 10 15 18t19 14l-1 5q-26 13 -54 16t-56 3l10 21l-5 3l-15 -24h-1q1 27 4 54.5t3 54.5l-6 1q-7 -28 -11.5 -55.5t-10.5 -54.5h-32l2 21l-6 1
l-6 -22h-1v7q-1 21 6 41l14 40l-5 3l-17 -24l-7 8l-32 -64l-8 1l-7 -34l-3 17q-4 -8 -9 -14.5t-10 -12.5l-8 25l-6 -1l-1 -20l-11 -16l1 17l-5 2l-11 -11l9 22l-5 3l-21 -25q3 5 1 13.5t-4 13.5l-1 -14l-23 -4l-1 1l342 341h-58l-319 -317v317h-41v-187q-20 17 -45.5 24.5
t-51.5 7.5q-17 0 -29 -3.5t-23.5 -9t-22.5 -12t-25 -12.5l-29 10v2l-7 1l-18 15l-12 -7l-19 8l46 7v6l-40 8q13 -2 26 -0.5t26 5.5v6l-72 22h47t49 3t46.5 11t40.5 25l-2 5q-53 0 -106.5 -1.5t-104.5 14.5l46 19l-2 6q-19 -4 -38 -4.5t-39 -1.5q7 6 29.5 8t48.5 3t50 1
q25 0 37 2v6q-26 4 -51.5 8.5t-50.5 12.5q24 11 48 20.5t51 10.5l2 6l76 16l-1 6l-49 2q-21 1 -42 -2t-42 -1l17 14l-30 9l35 58l-6 4q-3 -5 -9.5 -15.5t-13.5 -22.5t-11.5 -22.5t-3.5 -15.5l20 4l10 -3l-25 -12q4 -2 15.5 -3.5t16.5 -1.5q25 0 49 2.5t49 0.5
q-18 -5 -36.5 -9.5t-37.5 -4.5l-22 4l-2 4q-22 1 -43 4.5t-43 6.5v-6l37 -6l-24 2v-6l66 -7q-26 -2 -53 -2t-53 -3l88 -6h9l-51 -22v-6q20 -8 41 -12.5t42 -7.5q-36 -1 -74 -1.5t-70 -19.5l3 -3h29t29 2l-30 -12v-6q29 -11 60.5 -14.5t62.5 -2.5l89 1q-17 -13 -37.5 -19.5
t-42 -9.5t-43.5 -3h-43q-2 0 -7.5 0.5t-11.5 0t-10 -2t-1 -4.5q22 -5 43 -11.5t42 -13.5l-21 -3q-17 0 -33.5 3t-33.5 5l-1 -6q34 -11 69 -18q-10 -2 -20.5 -4t-21.5 -2q-20 0 -39 0.5t-35.5 -2.5t-31.5 -12t-27 -29v41h-41v-319l-9 -2l9 -6v-86h41v81q48 -8 97 -9t97 10
q-2 -7 -2.5 -17.5t0 -22.5t1.5 -23.5t1 -18.5h34q-14 -4 -27.5 -5t-27.5 -2l-1 -6l31 -10l-18 -3v-6q18 -8 36 -14t38 -11q-14 -5 -28.5 -8.5t-27.5 -10.5l17 -13l-13 -2l-1 -6l4 -1q-20 -2 -40.5 -3t-40.5 -1l-1 -6l33 -5l-7 -8q40 -2 79 -14l2 6l-15 3q24 3 51 2.5
t49 12.5q-4 1 -9 2.5t-9 1.5zM266 31l12 2l12 2q2 -1 3.5 -1.5t3.5 -2.5h-21h-10zM259 36q-4 -1 -10 -3t-9 -2q-6 0 -11.5 0.5t-10.5 1.5q20 0 41 3zM360 412l1 -1h2z" />
    <glyph glyph-name="Oslash" unicode="&#xd8;" horiz-adv-x="822" 
d="M785 357q0 185 -133 290l42 60l-37 23l-41 -58q-88 52 -199 52q-162 0 -265 -103q-102 -102 -102 -264q0 -87 35 -165q36 -80 105 -130l-40 -58l36 -24l40 58q88 -48 191 -48q162 0 265 103q103 102 103 264zM744 357q0 -145 -91 -236q-92 -90 -236 -90q-90 0 -167 41
l378 541q116 -93 116 -256zM593 638l-379 -542q-60 44 -91 110q-32 67 -32 151q0 143 92 235t234 92q94 0 176 -46z" />
    <glyph glyph-name="Ugrave" unicode="&#xd9;" horiz-adv-x="555" 
d="M314 772l-120 121l-21 -22l119 -119zM490 178v536h-41v-536q0 -67 -51 -107q-47 -37 -116 -37q-70 0 -116 36q-50 39 -50 108v536h-40v-536q0 -87 61 -138q58 -47 145 -47q90 0 145 46q63 52 63 139z" />
    <glyph glyph-name="Uacute" unicode="&#xda;" horiz-adv-x="555" 
d="M398 865l-19 20l-112 -112l20 -19zM490 178v536h-41v-536q0 -67 -51 -107q-47 -37 -116 -37q-70 0 -116 36q-50 39 -50 108v536h-40v-536q0 -87 61 -138q58 -47 145 -47q90 0 145 46q63 52 63 139z" />
    <glyph glyph-name="Ucircumflex" unicode="&#xdb;" horiz-adv-x="555" 
d="M404 782l-120 121l-122 -121l22 -21l100 99l100 -99zM490 178v536h-41v-536q0 -67 -51 -107q-47 -37 -116 -37q-70 0 -116 36q-50 39 -50 108v536h-40v-536q0 -87 61 -138q58 -47 145 -47q90 0 145 46q63 52 63 139z" />
    <glyph glyph-name="Udieresis" unicode="&#xdc;" horiz-adv-x="555" 
d="M382 796q-8 33 -33 33q-33 -6 -33 -33q1 -15 10 -24q12 -9 23 -9q33 0 33 33zM245 796q-8 33 -33 33q-33 -6 -33 -33q1 -15 10 -24q12 -9 23 -9q33 0 33 33zM490 178v536h-41v-536q0 -67 -51 -107q-47 -37 -116 -37q-70 0 -116 36q-50 39 -50 108v536h-40v-536
q0 -87 61 -138q58 -47 145 -47q90 0 145 46q63 52 63 139z" />
    <glyph glyph-name="Yacute" unicode="&#xdd;" horiz-adv-x="511" 
d="M379 865l-21 22l-112 -116l21 -17zM481 714h-47l-178 -309l-176 309h-47l203 -357v-357h41v357z" />
    <glyph glyph-name="Thorn" unicode="&#xde;" horiz-adv-x="490" 
d="M444 363q0 81 -56 129t-138 48h-134v174h-40v-714h40v183h134q82 0 138 50q56 48 56 130zM403 363q0 -65 -44 -103q-44 -36 -110 -36h-133v275h133q67 0 108 -34q46 -37 46 -102z" />
    <glyph glyph-name="germandbls" unicode="&#xdf;" horiz-adv-x="539" 
d="M505 210q0 89 -56 142q-46 43 -114 52q80 53 80 148q0 69 -50 116q-51 46 -120 46q-80 0 -123 -49q-43 -47 -43 -128v-124h-57v-41h57v-372h40v536q0 137 126 137q53 0 91 -35t38 -86q0 -54 -35 -97q-35 -42 -89 -42v-40q214 0 214 -163q0 -69 -41 -118q-44 -51 -111 -51
h-114v-41h113q91 0 144 60q50 58 50 150z" />
    <glyph glyph-name="agrave" unicode="&#xe0;" horiz-adv-x="510" 
d="M284 492l-134 134l-22 -24l131 -133zM454 0v413h-41v-72q-66 78 -165 78q-90 0 -152 -62q-61 -61 -61 -151t62 -152q61 -61 151 -61q100 0 165 78v-71h41zM421 206q0 -72 -51 -123q-50 -50 -122 -50q-71 0 -122 51t-51 122q0 72 51 123q50 50 122 50q71 0 122 -51
t51 -122z" />
    <glyph glyph-name="aacute" unicode="&#xe1;" horiz-adv-x="510" 
d="M372 602l-22 24l-134 -134l25 -23zM454 0v413h-41v-72q-66 78 -165 78q-90 0 -152 -62q-61 -61 -61 -151t62 -152q61 -61 151 -61q100 0 165 78v-71h41zM421 206q0 -72 -51 -123q-50 -50 -122 -50q-71 0 -122 51t-51 122q0 72 51 123q50 50 122 50q71 0 122 -51t51 -122z
" />
    <glyph glyph-name="acircumflex" unicode="&#xe2;" horiz-adv-x="510" 
d="M365 496l-120 120l-122 -120l22 -22l100 99l100 -99zM454 0v413h-41v-72q-66 78 -165 78q-90 0 -152 -62q-61 -61 -61 -151t62 -152q61 -61 151 -61q100 0 165 78v-71h41zM421 206q0 -72 -51 -123q-50 -50 -122 -50q-71 0 -122 51t-51 122q0 72 51 123q50 50 122 50
q71 0 122 -51t51 -122z" />
    <glyph glyph-name="atilde" unicode="&#xe3;" horiz-adv-x="510" 
d="M411 535l-28 22q-25 -28 -69 -28l-31 4l-29 13q-15 10 -28 14q-8 2 -17.5 3t-22.5 1q-67 0 -95 -51l27 -22q31 33 68 33l30 -4q7 -2 14 -5.5t15 -8.5q27 -18 71 -18q34 0 60 14l16 13zM454 0v413h-41v-72q-66 78 -165 78q-90 0 -152 -62q-61 -61 -61 -151t62 -152
q61 -61 151 -61q100 0 165 78v-71h41zM421 206q0 -72 -51 -123q-50 -50 -122 -50q-71 0 -122 51t-51 122q0 72 51 123q50 50 122 50q71 0 122 -51t51 -122z" />
    <glyph glyph-name="adieresis" unicode="&#xe4;" horiz-adv-x="510" 
d="M341 520q-8 33 -33 33q-33 -6 -33 -33q1 -15 10 -24q12 -9 23 -9q33 0 33 33zM204 520q-8 33 -33 33q-33 -6 -33 -33q1 -15 10 -24q12 -9 23 -9q33 0 33 33zM454 0v413h-41v-72q-66 78 -165 78q-90 0 -152 -62q-61 -61 -61 -151t62 -152q61 -61 151 -61q100 0 165 78v-71
h41zM421 206q0 -72 -51 -123q-50 -50 -122 -50q-71 0 -122 51t-51 122q0 72 51 123q50 50 122 50q71 0 122 -51t51 -122z" />
    <glyph glyph-name="aring" unicode="&#xe5;" horiz-adv-x="510" 
d="M327 538q0 33 -25 58t-58 25t-58 -25t-25 -58t25 -58t58 -25t58 25t25 58zM454 0v413h-41v-72q-66 78 -165 78q-90 0 -152 -62q-61 -61 -61 -151t62 -152q61 -61 151 -61q100 0 165 78v-71h41zM306 539q0 -24 -19 -43t-43 -19t-43 19t-19 43t19 43t43 19t43 -19t19 -43z
M421 206q0 -72 -51 -123q-50 -50 -122 -50q-71 0 -122 51t-51 122q0 72 51 123q50 50 122 50q71 0 122 -51t51 -122z" />
    <glyph glyph-name="ae" unicode="&#xe6;" horiz-adv-x="878" 
d="M843 215q0 92 -61 147q-61 56 -152 56q-116 0 -176 -86v81h-41v-72q-66 78 -165 78q-90 0 -152 -62q-61 -61 -61 -151t62 -152q61 -61 151 -61q100 0 165 78v-71h41v78q62 -86 176 -86q39 0 70 10q81 26 120 100l-37 17q-34 -55 -77 -73q-34 -14 -76 -14q-82 0 -129 50
q-45 49 -45 133h387zM797 254h-335q40 124 168 124q74 0 121 -44q36 -34 46 -80zM421 206q0 -72 -51 -123q-50 -50 -122 -50q-71 0 -122 51t-51 122q0 72 51 123q50 50 122 50q71 0 122 -51t51 -122z" />
    <glyph glyph-name="ccedilla" unicode="&#xe7;" horiz-adv-x="438" 
d="M387 29v54l-31 -25q-43 -25 -95 -25q-75 0 -124 49t-49 124q0 76 49 125q48 49 124 49q53 0 96 -25l15 -12l15 -13v54l-32 18q-45 18 -94 18q-92 0 -153 -61q-61 -60 -61 -153q0 -87 53 -146t139 -68l-13 -39l19 -15q10 -10 10 -21l-2 -8l-3 -6q-8 -8 -16 -8q-11 0 -20 6
l-16 14l-13 -35q21 -25 51 -25q23 0 42 16q18 16 18 39q-6 39 -27 49l13 34q40 0 76 18z" />
    <glyph glyph-name="egrave" unicode="&#xe8;" horiz-adv-x="490" 
d="M292 492l-134 134l-22 -24l131 -133zM461 215q0 91 -61 148q-60 57 -152 57q-93 0 -154 -61q-60 -60 -60 -153q0 -92 61 -153q60 -61 153 -61q39 0 70 10q81 26 120 100l-37 17q-34 -55 -77 -73q-34 -14 -76 -14q-82 0 -129 50q-45 49 -45 133h387zM415 254h-335
q40 126 168 126q61 0 108 -34q49 -35 59 -92z" />
    <glyph glyph-name="eacute" unicode="&#xe9;" horiz-adv-x="490" 
d="M356 602l-22 24l-134 -134l24 -23zM461 215q0 91 -61 148q-60 57 -152 57q-93 0 -154 -61q-60 -60 -60 -153q0 -92 61 -153q60 -61 153 -61q39 0 70 10q81 26 120 100l-37 17q-34 -55 -77 -73q-34 -14 -76 -14q-82 0 -129 50q-45 49 -45 133h387zM415 254h-335
q40 126 168 126q61 0 108 -34q49 -35 59 -92z" />
    <glyph glyph-name="ecircumflex" unicode="&#xea;" horiz-adv-x="490" 
d="M372 496l-120 120l-121 -120l21 -22l100 99l100 -99zM461 215q0 91 -61 148q-60 57 -152 57q-93 0 -154 -61q-60 -60 -60 -153q0 -92 61 -153q60 -61 153 -61q39 0 70 10q81 26 120 100l-37 17q-34 -55 -77 -73q-34 -14 -76 -14q-82 0 -129 50q-45 49 -45 133h387z
M415 254h-335q40 126 168 126q61 0 108 -34q49 -35 59 -92z" />
    <glyph glyph-name="edieresis" unicode="&#xeb;" horiz-adv-x="490" 
d="M348 520q-8 33 -33 33q-33 -6 -33 -33q1 -15 10 -24q12 -9 23 -9q33 0 33 33zM211 520q-8 33 -33 33q-33 -6 -33 -33q1 -15 10 -24q12 -9 23 -9q33 0 33 33zM461 215q0 91 -61 148q-60 57 -152 57q-93 0 -154 -61q-60 -60 -60 -153q0 -92 61 -153q60 -61 153 -61
q39 0 70 10q81 26 120 100l-37 17q-34 -55 -77 -73q-34 -14 -76 -14q-82 0 -129 50q-45 49 -45 133h387zM415 254h-335q40 126 168 126q61 0 108 -34q49 -35 59 -92z" />
    <glyph glyph-name="igrave" unicode="&#xec;" horiz-adv-x="184" 
d="M118 492l-133 134l-23 -24l132 -133zM114 0v413h-41v-413h41z" />
    <glyph glyph-name="iacute" unicode="&#xed;" horiz-adv-x="184" 
d="M230 602l-23 24l-134 -134l25 -23zM114 0v413h-41v-413h41z" />
    <glyph glyph-name="icircumflex" unicode="&#xee;" horiz-adv-x="255" 
d="M250 496l-120 120l-122 -120l22 -22l100 99l100 -99zM148 0v413h-41v-413h41z" />
    <glyph glyph-name="idieresis" unicode="&#xef;" horiz-adv-x="184" 
d="M193 520q-8 33 -33 33q-33 -6 -33 -33q1 -15 10 -24q12 -9 23 -9q33 0 33 33zM56 520q-8 33 -33 33q-33 -8 -33 -33q6 -33 33 -33q33 0 33 33zM114 0v413h-41v-413h41z" />
    <glyph glyph-name="eth" unicode="&#xf0;" horiz-adv-x="498" 
d="M461 206q0 146 -37 233q-32 73 -105 138l91 57l-40 26l-88 -55q-51 36 -105 51l-36 -35l51 -21l45 -23l-87 -55l40 -26l86 54q102 -74 127 -198q-64 67 -155 67q-90 0 -152 -62q-61 -61 -61 -151t62 -152q61 -61 151 -61t152 62q61 61 61 151zM421 206q0 -72 -51 -123
q-50 -50 -122 -50q-71 0 -122 51t-51 122q0 72 51 123q50 50 122 50q71 0 122 -51t51 -122z" />
    <glyph glyph-name="ntilde" unicode="&#xf1;" horiz-adv-x="451" 
d="M385 535l-29 22q-21 -21 -29 -24l-12 -4h-23l-35 4l-29 12q-5 3 -9 5l-8 4q-27 10 -52 10q-67 0 -95 -51l28 -22q25 33 62 33q22 0 36 -6l29 -12q30 -18 77 -18q31 0 54 14l16 13zM385 0v251q0 79 -41 123t-118 44q-91 0 -119 -55v50h-41v-413h41v251q0 59 31 93
q30 34 88 34q118 0 118 -131v-247h41z" />
    <glyph glyph-name="ograve" unicode="&#xf2;" horiz-adv-x="498" 
d="M291 492l-134 134l-22 -24l131 -133zM461 206q0 90 -62 152t-151 62q-90 0 -151 -63q-62 -62 -62 -151q0 -90 62 -152q61 -61 151 -61t152 62q61 61 61 151zM421 206q0 -72 -51 -123q-50 -50 -122 -50q-71 0 -122 51t-51 122q0 70 52 122q51 52 121 52q73 0 123 -51
q50 -50 50 -123z" />
    <glyph glyph-name="oacute" unicode="&#xf3;" horiz-adv-x="498" 
d="M360 602l-22 24l-134 -134l25 -23zM461 206q0 90 -62 152t-151 62q-90 0 -151 -63q-62 -62 -62 -151q0 -90 62 -152q61 -61 151 -61t152 62q61 61 61 151zM421 206q0 -72 -51 -123q-50 -50 -122 -50q-71 0 -122 51t-51 122q0 70 52 122q51 52 121 52q73 0 123 -51
q50 -50 50 -123z" />
    <glyph glyph-name="ocircumflex" unicode="&#xf4;" horiz-adv-x="498" 
d="M365 496l-120 120l-122 -120l22 -22l100 99l100 -99zM461 206q0 90 -62 152t-151 62q-90 0 -151 -63q-62 -62 -62 -151q0 -90 62 -152q61 -61 151 -61t152 62q61 61 61 151zM421 206q0 -72 -51 -123q-50 -50 -122 -50q-71 0 -122 51t-51 122q0 70 52 122q51 52 121 52
q73 0 123 -51q50 -50 50 -123z" />
    <glyph glyph-name="otilde" unicode="&#xf5;" horiz-adv-x="498" 
d="M403 535l-29 22q-21 -21 -29 -24l-12 -4h-23l-35 4l-29 12q-5 3 -9 5l-8 4q-27 10 -52 10q-67 0 -95 -51l28 -22q25 33 62 33q22 0 36 -6l29 -12q30 -18 77 -18q31 0 54 14l16 13zM461 206q0 90 -62 152t-151 62q-90 0 -151 -63q-62 -62 -62 -151q0 -90 62 -152
q61 -61 151 -61t152 62q61 61 61 151zM421 206q0 -72 -51 -123q-50 -50 -122 -50q-71 0 -122 51t-51 122q0 70 52 122q51 52 121 52q73 0 123 -51q50 -50 50 -123z" />
    <glyph glyph-name="odieresis" unicode="&#xf6;" horiz-adv-x="498" 
d="M345 520q-8 33 -33 33q-33 -6 -33 -33q1 -15 10 -24q12 -9 23 -9q33 0 33 33zM208 520q-8 33 -33 33q-33 -6 -33 -33q1 -15 10 -24q12 -9 23 -9q33 0 33 33zM461 206q0 90 -62 152t-151 62q-90 0 -151 -63q-62 -62 -62 -151q0 -90 62 -152q61 -61 151 -61t152 62
q61 61 61 151zM421 206q0 -72 -51 -123q-50 -50 -122 -50q-71 0 -122 51t-51 122q0 70 52 122q51 52 121 52q73 0 123 -51q50 -50 50 -123z" />
    <glyph glyph-name="divide" unicode="&#xf7;" horiz-adv-x="362" 
d="M218 381q-8 33 -33 33q-33 -6 -33 -33q1 -15 10 -24q12 -9 23 -9q33 0 33 33zM314 239v51h-257v-51h257zM218 146q-8 33 -33 33q-33 -6 -33 -33q1 -15 10 -24q12 -9 23 -9q33 0 33 33z" />
    <glyph glyph-name="oslash" unicode="&#xf8;" horiz-adv-x="498" 
d="M461 206q0 94 -70 158l41 59l-36 24l-40 -57q-50 29 -108 29q-90 0 -152 -62q-61 -61 -61 -151q0 -101 77 -164l-36 -52l34 -25l37 53q46 -25 101 -25q90 0 152 62q61 61 61 151zM421 206q0 -72 -51 -123q-50 -50 -122 -50l-40 4l-19 6l-18 8l197 280q53 -50 53 -125z
M333 357l-198 -282q-60 52 -60 131q0 72 51 123q50 50 122 50q44 0 85 -22z" />
    <glyph glyph-name="ugrave" unicode="&#xf9;" horiz-adv-x="429" 
d="M244 492l-134 134l-22 -24l131 -133zM369 155v258h-40v-258q0 -123 -115 -123q-59 0 -86 32q-26 32 -26 91v258h-41v-258q0 -77 40 -120t113 -43q74 0 115 44q40 43 40 119z" />
    <glyph glyph-name="uacute" unicode="&#xfa;" horiz-adv-x="429" 
d="M351 602l-22 24l-134 -134l24 -23zM369 155v258h-40v-258q0 -123 -115 -123q-59 0 -86 32q-26 32 -26 91v258h-41v-258q0 -77 40 -120t113 -43q74 0 115 44q40 43 40 119z" />
    <glyph glyph-name="ucircumflex" unicode="&#xfb;" horiz-adv-x="429" 
d="M336 496l-121 120l-121 -120l21 -22l100 99l100 -99zM369 155v258h-40v-258q0 -123 -115 -123q-59 0 -86 32q-26 32 -26 91v258h-41v-258q0 -77 40 -120t113 -43q74 0 115 44q40 43 40 119z" />
    <glyph glyph-name="udieresis" unicode="&#xfc;" horiz-adv-x="429" 
d="M315 520q-8 33 -33 33q-33 -6 -33 -33q1 -15 10 -24q12 -9 23 -9q33 0 33 33zM178 520q-8 33 -33 33q-33 -6 -33 -33q1 -15 10 -24q12 -9 23 -9q33 0 33 33zM369 155v258h-40v-258q0 -123 -115 -123q-59 0 -86 32q-26 32 -26 91v258h-41v-258q0 -77 40 -120t113 -43
q74 0 115 44q40 43 40 119z" />
    <glyph glyph-name="yacute" unicode="&#xfd;" horiz-adv-x="822" 
d="M785 357q0 185 -133 290l42 60l-37 23l-41 -58q-88 52 -199 52q-162 0 -265 -103q-102 -102 -102 -264q0 -87 35 -165q36 -80 105 -130l-40 -58l36 -24l40 58q88 -48 191 -48q162 0 265 103q103 102 103 264zM593 638l-379 -542q-60 44 -91 110q-32 67 -32 151
q0 143 92 235q90 92 234 92q94 0 176 -46zM744 373v-16q0 -145 -91 -236q-92 -90 -236 -90q-90 0 -167 41l378 541q69 -56 96 -134q-22 19 -51 19q-33 0 -58 -25t-25 -58t25 -58t58 -25t58 25q7 7 13 16zM735 416q0 -24 -19 -43t-43 -19t-43 19t-19 43t19 43t43 19t43 -19
t19 -43zM396 415q0 33 -25 58t-58 25t-58 -25t-25 -58t25 -58t58 -25t58 25t25 58zM375 416q0 -24 -19 -43t-43 -19t-43 19t-19 43t19 43t43 19t43 -19t19 -43zM301 399q0 -9 6.5 -15.5t15.5 -6.5t15.5 6.5t6.5 15.5t-6.5 15.5t-15.5 6.5t-15.5 -6.5t-6.5 -15.5zM662 396
q0 -9 6.5 -15.5t15.5 -6.5t15.5 6.5t6.5 15.5t-6.5 15.5t-15.5 6.5t-15.5 -6.5t-6.5 -15.5zM616 151l-18 22q-37 -37 -85 -37q-52 0 -91 39l-21 -24q41 -44 108 -44q69 0 107 44z" />
    <glyph glyph-name="thorn" unicode="&#xfe;" horiz-adv-x="513" 
d="M488 206q0 90 -62 152q-61 61 -151 61q-106 0 -170 -84v405h-41v-934h41v271q67 -84 170 -84q90 0 152 62q61 61 61 151zM448 206q0 -72 -51 -123q-50 -50 -122 -50q-71 0 -122 51t-51 122q0 72 51 123q50 50 122 50q71 0 122 -51t51 -122z" />
    <glyph glyph-name="ydieresis" unicode="&#xff;" horiz-adv-x="445" 
d="M331 520q-8 33 -33 33q-33 -6 -33 -33q1 -15 10 -24q12 -9 23 -9q33 0 33 33zM194 520q-8 33 -33 33q-33 -6 -33 -33q1 -15 10 -24q12 -9 23 -9q33 0 33 33zM423 413h-45l-152 -326l-154 326h-44l174 -375l-107 -232h46z" />
    <glyph glyph-name="OE" unicode="&#x152;" horiz-adv-x="1148" 
d="M1087 0v41h-302v328h302v44h-302v260h302v41h-343v-179q-47 92 -136 142q-85 47 -191 47q-162 0 -265 -103q-102 -102 -102 -264t103 -265q102 -102 264 -102q109 0 191 47q87 49 136 142v-179h343zM744 357q0 -145 -91 -236q-92 -90 -236 -90q-143 0 -235 92
q-91 91 -91 234t92 235t234 92q144 0 236 -92q91 -91 91 -235z" />
    <glyph glyph-name="oe" unicode="&#x153;" horiz-adv-x="883" 
d="M849 215q0 92 -61 147q-61 56 -152 56q-65 0 -118 -32t-78 -89q-28 55 -80 89q-51 33 -112 33q-90 0 -152 -62q-61 -61 -61 -151t62 -152q61 -61 151 -61q62 0 115 33q51 32 77 89q27 -58 79 -91q53 -32 117 -32q39 0 70 10q81 26 120 100l-37 17q-34 -55 -77 -73
q-34 -14 -76 -14q-82 0 -129 50q-45 49 -45 133h387zM803 254h-335q40 124 168 124q74 0 121 -44q36 -34 46 -80zM421 206q0 -72 -51 -123q-50 -50 -122 -50q-71 0 -122 51t-51 122q0 72 51 123q50 50 122 50q71 0 122 -51t51 -122z" />
    <glyph glyph-name="Scaron" unicode="&#x160;" horiz-adv-x="498" 
d="M384 859l-21 22l-100 -99l-100 99l-21 -22l121 -120zM458 185q0 85 -58 142q-21 21 -55 41.5t-81 41.5q-75 34 -100 54q-44 38 -44 89q0 57 42 92q39 33 98 33q56 0 91 -22q28 -16 48 -49l39 17q-52 94 -178 94q-76 0 -128 -46q-53 -45 -53 -119t52 -119q31 -28 116 -66
q45 -20 74 -36t43 -29q53 -47 53 -118q0 -75 -45 -114q-44 -38 -121 -38q-135 0 -170 128l-41 -14q47 -155 211 -155q53 0 92 14q115 43 115 179z" />
    <glyph glyph-name="scaron" unicode="&#x161;" horiz-adv-x="331" 
d="M291 559l-21 22l-100 -99l-100 99l-21 -22l121 -120zM308 113q0 56 -43 89q-11 8 -33 18.5t-56 22.5q-39 13 -57 27q-22 18 -22 46q0 63 72 63q53 0 87 -34l30 26q-48 48 -117 48q-50 0 -81 -31q-32 -30 -32 -72q0 -49 32 -75q22 -18 72 -36q27 -10 45.5 -17.5
t28.5 -13.5q33 -26 33 -61q0 -80 -94 -80q-43 0 -68 19q-24 17 -41 48l-35 -21q48 -87 144 -87q56 0 96 34q39 33 39 87z" />
    <glyph glyph-name="Ydieresis" unicode="&#x178;" horiz-adv-x="511" 
d="M354 796q-8 33 -33 33q-33 -6 -33 -33q1 -15 10 -24q12 -9 23 -9q33 0 33 33zM217 796q-8 33 -33 33q-33 -6 -33 -33q1 -15 10 -24q12 -9 23 -9q33 0 33 33zM481 714h-47l-178 -309l-176 309h-47l203 -357v-357h41v357z" />
    <glyph glyph-name="florin" unicode="&#x192;" horiz-adv-x="594" 
d="M176 530v-530h241v41h-201v673h-40v-74l-3 3q-24 25 -58 25q-33 0 -58 -25t-25 -58t25 -58t58 -25q34 0 58 25zM176 597v-22q-3 -17 -18 -32q-19 -19 -43 -19t-43 19t-19 43t19 43t43 19t43 -19q15 -15 18 -32zM103 569q0 -9 6.5 -15.5t15.5 -6.5t15.5 6.5t6.5 15.5
t-6.5 15.5t-15.5 6.5t-15.5 -6.5t-6.5 -15.5zM558 585q0 33 -25 58t-58 25t-58 -25t-25 -58t25 -58t58 -25t58 25t25 58zM537 586q0 -24 -19 -43t-43 -19t-43 19t-19 43t19 43t43 19t43 -19t19 -43zM464 566q0 -9 6.5 -15.5t15.5 -6.5t15.5 6.5t6.5 15.5t-6.5 15.5
t-15.5 6.5t-15.5 -6.5t-6.5 -15.5zM356 -149l-18 22q-37 -37 -85 -37q-52 0 -91 39l-21 -24q41 -44 108 -44q69 0 107 44z" />
    <glyph glyph-name="circumflex" unicode="&#x2c6;" horiz-adv-x="378" 
d="M312 496l-120 120l-120 -120l20 -22l100 99l100 -99z" />
    <glyph glyph-name="tilde" unicode="&#x2dc;" horiz-adv-x="423" 
d="M377 535l-29 22q-21 -21 -29 -24l-12 -4h-23l-35 4l-29 12q-5 3 -9 5l-8 4q-27 10 -52 10q-67 0 -95 -51l28 -22q25 33 62 33q22 0 36 -6l29 -12q30 -18 77 -18q31 0 54 14l16 13z" />
    <glyph glyph-name="endash" unicode="&#x2013;" horiz-adv-x="372" 
d="M333 244v41h-291v-41h291z" />
    <glyph glyph-name="emdash" unicode="&#x2014;" horiz-adv-x="617" 
d="M572 244v41h-520v-41h520z" />
    <glyph glyph-name="quoteleft" unicode="&#x2018;" horiz-adv-x="163" 
d="M110 564v72h-33v45q0 27 18 47h-20q-18 -14 -18 -47v-117h53z" />
    <glyph glyph-name="quoteright" unicode="&#x2019;" horiz-adv-x="158" 
d="M116 619v117h-53v-72h33v-45q0 -28 -18 -47h20q18 22 18 47z" />
    <glyph glyph-name="quotesinglbase" unicode="&#x201a;" horiz-adv-x="158" 
d="M116 15v117h-53v-72h33v-45q0 -28 -18 -47h20q10 7 13 21q5 12 5 26z" />
    <glyph glyph-name="quotedblleft" unicode="&#x201c;" horiz-adv-x="286" 
d="M229 564v72h-33v45q0 27 18 47h-20q-18 -14 -18 -47v-117h53zM114 564v72h-33v45q0 27 18 47h-20q-18 -14 -18 -47v-117h53z" />
    <glyph glyph-name="quotedblright" unicode="&#x201d;" horiz-adv-x="301" 
d="M234 619v117h-53v-72h33v-45q0 -28 -18 -47h20q18 22 18 47zM119 619v117h-53v-72h33v-45q0 -28 -18 -47h20q18 22 18 47z" />
    <glyph glyph-name="quotedblbase" unicode="&#x201e;" horiz-adv-x="301" 
d="M234 15v117h-53v-72h33v-45q0 -28 -18 -47h20q10 7 13 21q5 12 5 26zM119 15v117h-53v-72h33v-45q0 -28 -18 -47h20q10 7 13 21q5 12 5 26z" />
    <glyph glyph-name="dagger" unicode="&#x2020;" horiz-adv-x="245" 
d="M205 547v27h-67v162h-28v-162h-67v-27h67v-393h28v393h67z" />
    <glyph glyph-name="daggerdbl" unicode="&#x2021;" horiz-adv-x="245" 
d="M211 365v28h-67v149h67v27h-67v167h-28v-167h-67v-27h67v-149h-67v-28h67v-298h28v298h67z" />
    <glyph glyph-name="bullet" unicode="&#x2022;" horiz-adv-x="294" 
d="M214 328q0 33 -24 59q-24 24 -59 24q-34 0 -59 -24q-24 -26 -24 -59q0 -35 24 -59q25 -24 59 -24q35 0 59 24t24 59z" />
    <glyph glyph-name="ellipsis" unicode="&#x2026;" horiz-adv-x="418" 
d="M62 27q-8 33 -33 33q-33 -6 -33 -33q1 -15 10 -24q12 -9 23 -9q33 0 33 33zM205 27q-8 33 -33 33q-33 -6 -33 -33q1 -15 10 -24q12 -9 23 -9q33 0 33 33zM348 27q-8 33 -33 33q-33 -6 -33 -33q1 -15 10 -24q12 -9 23 -9q33 0 33 33z" />
    <glyph glyph-name="perthousand" unicode="&#x2030;" horiz-adv-x="827" 
d="M798 115q0 51 -37 88t-88 37t-88 -37q-36 -38 -36 -88q0 -48 38 -86q37 -37 86 -37q51 0 89 36q36 34 36 87zM298 572q0 51 -37 88t-88 37t-88 -37q-36 -38 -36 -88q0 -48 38 -86q37 -37 86 -37q51 0 89 36q36 34 36 87zM597 714h-50l-526 -714h50zM498 115q0 51 -37 88
t-88 37t-88 -37q-36 -38 -36 -88q0 -48 38 -86q37 -37 86 -37q51 0 89 36q36 34 36 87zM757 115q0 -32 -26 -58q-26 -24 -58 -24q-33 0 -59 23q-24 27 -24 59q0 34 25 59q24 25 58 25t59 -25t25 -59zM257 572q0 -33 -25 -58q-29 -24 -59 -24q-33 0 -58 25q-25 24 -25 57
q0 34 25 59q24 25 58 25t59 -25t25 -59zM457 115q0 -32 -26 -58q-26 -24 -58 -24q-33 0 -59 23q-24 27 -24 59q0 34 25 59q24 25 58 25t59 -25t25 -59z" />
    <glyph glyph-name="guilsinglleft" unicode="&#x2039;" horiz-adv-x="281" 
d="M235 423l-21 21l-188 -189l184 -185l21 21l-165 164z" />
    <glyph glyph-name="guilsinglright" unicode="&#x203a;" horiz-adv-x="281" 
d="M254 255l-189 189l-20 -21l168 -168l-164 -164l20 -21z" />
    <glyph glyph-name="trademark" unicode="&#x2122;" horiz-adv-x="337" 
d="M315 547l-33 161l-52 -148l-51 148l-36 -161h7l30 138l50 -146l50 146l28 -138h7zM148 700v6h-109v-6h51v-154h7v154h51z" />
    <glyph glyph-name="minus" unicode="&#xe000;" horiz-adv-x="318" 
d="M268 244v41h-211v-41h211z" />
    <glyph glyph-name="notequal" unicode="&#xe001;" horiz-adv-x="612" 
d="M336 0v714h-135l-27 -41h121v-673h41zM219 515q0 33 -25 58t-58 25t-58 -25t-25 -58t25 -58t58 -25t58 25t25 58zM198 516q0 -24 -19 -43t-43 -19t-43 19t-19 43t19 43t43 19t43 -19t19 -43zM579 515q0 33 -25 58t-58 25t-58 -25t-25 -58t25 -58t58 -25t58 25t25 58z
M558 516q0 -24 -19 -43t-43 -19t-43 19t-19 43t19 43t43 19t43 -19t19 -43zM124 499q0 -9 6.5 -15.5t15.5 -6.5t15.5 6.5t6.5 15.5t-6.5 15.5t-15.5 6.5t-15.5 -6.5t-6.5 -15.5zM485 496q0 -9 6.5 -15.5t15.5 -6.5t15.5 6.5t6.5 15.5t-6.5 15.5t-15.5 6.5t-15.5 -6.5
t-6.5 -15.5zM439 -71l-21 22l-100 -99l-100 99l-21 -22l121 -120z" />
    <glyph glyph-name="partialdiff" unicode="&#xe002;" 
d="M225 419v322h-60l-12 -19h54v-303h18zM335 354v26h-254v-26h254zM301 238q0 38 -28 62q-29 24 -66 24q-34 0 -62 -22q-27 -20 -32 -54h20q19 58 74 58q29 0 52 -20q23 -18 23 -48q0 -27 -19 -56l-157 -182h194v18h-154l93 105q35 40 43 52q19 32 19 63z" />
    <glyph glyph-name="summation" unicode="&#xe003;" 
d="M219 419v322h-60l-12 -19h54v-303h18zM333 354v26h-254v-26h254zM288 60v18h-28v247l-184 -265h165v-61h19v61h28zM241 78h-132l132 187v-187z" />
    <glyph glyph-name="product" unicode="&#xe004;" 
d="M219 419v322h-60l-12 -19h54v-303h18z" />
    <glyph glyph-name="pi" unicode="&#xe005;" 
d="M291 507q0 68 -63 86q60 16 60 74q0 36 -25 60q-25 22 -61 22q-35 0 -59 -21q-24 -19 -27 -55h21q9 57 65 57q28 0 46 -18q18 -17 18 -45l-4 -25l-12 -19q-17 -17 -46 -17h-19v-26h19l21 -4q9 -3 20 -12q26 -20 26 -57q0 -30 -21 -51q-22 -20 -51 -20q-25 0 -44 17
q-18 17 -24 35h-20q19 -70 88 -70q41 0 66 25q26 24 26 64zM327 354v26h-255v-26h255zM292 60v18h-28v247l-184 -265h165v-61h19v61h28zM245 78h-132l132 187v-187z" />
    <glyph glyph-name="integral" unicode="&#xe006;" 
d="M291 507q0 68 -63 86q60 16 60 74q0 36 -25 60q-25 22 -61 22q-35 0 -59 -21q-24 -19 -27 -55h21q9 57 65 57q28 0 46 -18q18 -17 18 -45l-4 -25l-12 -19q-17 -17 -46 -17h-19v-26h19l21 -4q9 -3 20 -12q26 -20 26 -57q0 -30 -21 -51q-22 -20 -51 -20q-25 0 -44 17
q-18 17 -24 35h-20q19 -70 88 -70q41 0 66 25q26 24 26 64z" />
    <glyph glyph-name="Omega" unicode="&#xe007;" 
d="M297 656q0 38 -28 62q-29 24 -66 24q-34 0 -62 -22q-27 -20 -32 -54h20q19 58 74 58q29 0 52 -20q23 -18 23 -48q0 -27 -19 -56l-157 -182h194v18h-154l93 105q35 40 43 52q19 32 19 63z" />
    <glyph glyph-name="radical" unicode="&#xe008;" horiz-adv-x="572" 
d="M305 142v572h-41v-570q0 -111 -75 -111q-49 0 -74 46l-35 -22q35 -65 110 -65q115 0 115 150zM189 615q0 33 -25 58t-58 25t-58 -25t-25 -58t25 -58t58 -25t58 25t25 58zM168 616q0 -24 -19 -43t-43 -19t-43 19t-19 43t19 43t43 19t43 -19t19 -43zM549 615q0 33 -25 58
t-58 25t-58 -25t-25 -58t25 -58t58 -25t58 25t25 58zM528 616q0 -24 -19 -43t-43 -19t-43 19t-19 43t19 43t43 19t43 -19t19 -43zM94 599q0 -9 6.5 -15.5t15.5 -6.5t15.5 6.5t6.5 15.5t-6.5 15.5t-15.5 6.5t-15.5 -6.5t-6.5 -15.5zM455 596q0 -9 6.5 -15.5t15.5 -6.5
t15.5 6.5t6.5 15.5t-6.5 15.5t-15.5 6.5t-15.5 -6.5t-6.5 -15.5z" />
    <glyph glyph-name="approxequal" unicode="&#xe009;" horiz-adv-x="748" 
d="M24 -10h502v41h-426l433 657l-34 26zM289 515q0 33 -25 58t-58 25t-58 -25t-25 -58t25 -58t58 -25t58 25t25 58zM268 516q0 -24 -19 -43t-43 -19t-43 19t-19 43t19 43t43 19t43 -19t19 -43zM649 515q0 33 -25 58t-58 25t-58 -25t-25 -58t25 -58t58 -25t58 25t25 58z
M628 516q0 -24 -19 -43t-43 -19t-43 19t-19 43t19 43t43 19t43 -19t19 -43zM194 499q0 -9 6.5 -15.5t15.5 -6.5t15.5 6.5t6.5 15.5t-6.5 15.5t-15.5 6.5t-15.5 -6.5t-6.5 -15.5zM555 496q0 -9 6.5 -15.5t15.5 -6.5t15.5 6.5t6.5 15.5t-6.5 15.5t-15.5 6.5t-15.5 -6.5
t-6.5 -15.5zM486 -139l-18 22q-37 -37 -85 -37q-52 0 -91 39l-21 -24q41 -44 108 -44q69 0 107 44z" />
    <glyph glyph-name="nonbreakingspace" unicode="&#xe00a;" horiz-adv-x="276" 
 />
    <glyph glyph-name="lozenge" unicode="&#xe00b;" horiz-adv-x="572" 
d="M189 615q0 33 -25 58t-58 25t-58 -25t-25 -58t25 -58t58 -25t58 25t25 58zM168 616q0 -24 -19 -43t-43 -19t-43 19t-19 43t19 43t43 19t43 -19t19 -43zM549 615q0 33 -25 58t-58 25t-58 -25t-25 -58t25 -58t58 -25t58 25t25 58zM528 616q0 -24 -19 -43t-43 -19t-43 19
t-19 43t19 43t43 19t43 -19t19 -43zM94 599q0 -9 6.5 -15.5t15.5 -6.5t15.5 6.5t6.5 15.5t-6.5 15.5t-15.5 6.5t-15.5 -6.5t-6.5 -15.5zM455 596q0 -9 6.5 -15.5t15.5 -6.5t15.5 6.5t6.5 15.5t-6.5 15.5t-15.5 6.5t-15.5 -6.5t-6.5 -15.5z" />
    </font>
</defs>
</svg>
